<?xml version="1.0" encoding="UTF-8" standalone="no"?>
<!DOCTYPE svg PUBLIC "-//W3C//DTD SVG 1.1//EN"
 "http://www.w3.org/Graphics/SVG/1.1/DTD/svg11.dtd">
<!-- Generated by graphviz version 2.47.0 (20210316.0004)
 -->
<!-- Title: dependencies Pages: 1 -->
<svg width="7028pt" height="290pt"
 viewBox="0.00 0.00 7028.00 290.00" xmlns="http://www.w3.org/2000/svg" xmlns:xlink="http://www.w3.org/1999/xlink">
<g id="graph0" class="graph" transform="scale(1 1) rotate(0) translate(4 286)">
<title>dependencies</title>
<polygon fill="white" stroke="transparent" points="-4,4 -4,-286 7024,-286 7024,4 -4,4"/>
<text text-anchor="start" x="3489.01" y="-42.4" font-family="Times-12" font-weight="bold" font-size="14.00">Legend</text>
<polygon fill="#ffffb3" stroke="transparent" points="3276,-10 3276,-30 3296,-30 3296,-10 3276,-10"/>
<text text-anchor="start" x="3299.63" y="-15.4" font-family="Times-12" font-size="14.00"> &#160;Declarations</text>
<polygon fill="#8dd3c7" stroke="transparent" points="3389,-10 3389,-30 3409,-30 3409,-10 3389,-10"/>
<text text-anchor="start" x="3412.73" y="-15.4" font-family="Times-12" font-size="14.00"> &#160;Module</text>
<polygon fill="#80b1d3" stroke="transparent" points="3475,-10 3475,-30 3495,-30 3495,-10 3475,-10"/>
<text text-anchor="start" x="3498.78" y="-15.4" font-family="Times-12" font-size="14.00"> &#160;Bootstrap</text>
<polygon fill="#fdb462" stroke="transparent" points="3572,-10 3572,-30 3592,-30 3592,-10 3572,-10"/>
<text text-anchor="start" x="3595.67" y="-15.4" font-family="Times-12" font-size="14.00"> &#160;Providers</text>
<polygon fill="#fb8072" stroke="transparent" points="3668,-10 3668,-30 3688,-30 3688,-10 3668,-10"/>
<text text-anchor="start" x="3691.73" y="-15.4" font-family="Times-12" font-size="14.00"> &#160;Exports</text>
<g id="clust1" class="cluster">
<title>cluster_AppModule</title>
<polygon fill="none" stroke="black" stroke-dasharray="1,5" points="8,-70 8,-274 415,-274 415,-70 8,-70"/>
</g>
<g id="clust2" class="cluster">
<title>cluster_AppModule_declarations</title>
<polygon fill="none" stroke="black" points="16,-78 16,-130 138,-130 138,-78 16,-78"/>
</g>
<g id="clust4" class="cluster">
<title>cluster_AppModule_imports</title>
<polygon fill="none" stroke="black" points="146,-78 146,-130 407,-130 407,-78 146,-78"/>
</g>
<g id="clust6" class="cluster">
<title>cluster_AppModule_bootstrap</title>
<polygon fill="none" stroke="black" points="156,-214 156,-266 280,-266 280,-214 156,-214"/>
</g>
<g id="clust14" class="cluster">
<title>cluster_ChatOverviewPageModule</title>
<polygon fill="none" stroke="black" stroke-dasharray="1,5" points="3424,-70 3424,-198 3818,-198 3818,-70 3424,-70"/>
</g>
<g id="clust15" class="cluster">
<title>cluster_ChatOverviewPageModule_declarations</title>
<polygon fill="none" stroke="black" points="3670,-78 3670,-130 3810,-130 3810,-78 3670,-78"/>
</g>
<g id="clust17" class="cluster">
<title>cluster_ChatOverviewPageModule_imports</title>
<polygon fill="none" stroke="black" points="3432,-78 3432,-130 3662,-130 3662,-78 3432,-78"/>
</g>
<g id="clust27" class="cluster">
<title>cluster_CreatePageModule</title>
<polygon fill="none" stroke="black" stroke-dasharray="1,5" points="3826,-70 3826,-198 4130,-198 4130,-70 3826,-70"/>
</g>
<g id="clust28" class="cluster">
<title>cluster_CreatePageModule_declarations</title>
<polygon fill="none" stroke="black" points="4026,-78 4026,-130 4122,-130 4122,-78 4026,-78"/>
</g>
<g id="clust30" class="cluster">
<title>cluster_CreatePageModule_imports</title>
<polygon fill="none" stroke="black" points="3834,-78 3834,-130 4018,-130 4018,-78 3834,-78"/>
</g>
<g id="clust40" class="cluster">
<title>cluster_ExploreContainerComponentModule</title>
<polygon fill="none" stroke="black" stroke-dasharray="1,5" points="5384,-70 5384,-274 5624,-274 5624,-70 5384,-70"/>
</g>
<g id="clust41" class="cluster">
<title>cluster_ExploreContainerComponentModule_declarations</title>
<polygon fill="none" stroke="black" points="5406,-78 5406,-130 5602,-130 5602,-78 5406,-78"/>
</g>
<g id="clust44" class="cluster">
<title>cluster_ExploreContainerComponentModule_exports</title>
<polygon fill="none" stroke="black" points="5404,-214 5404,-266 5604,-266 5604,-214 5404,-214"/>
</g>
<g id="clust47" class="cluster">
<title>cluster_LoginPageModule</title>
<polygon fill="none" stroke="black" stroke-dasharray="1,5" points="4138,-70 4138,-198 4436,-198 4436,-70 4138,-70"/>
</g>
<g id="clust48" class="cluster">
<title>cluster_LoginPageModule_declarations</title>
<polygon fill="none" stroke="black" points="4336,-78 4336,-130 4428,-130 4428,-78 4336,-78"/>
</g>
<g id="clust50" class="cluster">
<title>cluster_LoginPageModule_imports</title>
<polygon fill="none" stroke="black" points="4146,-78 4146,-130 4328,-130 4328,-78 4146,-78"/>
</g>
<g id="clust60" class="cluster">
<title>cluster_MessagesPageModule</title>
<polygon fill="none" stroke="black" stroke-dasharray="1,5" points="4444,-70 4444,-198 4784,-198 4784,-70 4444,-70"/>
</g>
<g id="clust61" class="cluster">
<title>cluster_MessagesPageModule_declarations</title>
<polygon fill="none" stroke="black" points="4662,-78 4662,-130 4776,-130 4776,-78 4662,-78"/>
</g>
<g id="clust63" class="cluster">
<title>cluster_MessagesPageModule_imports</title>
<polygon fill="none" stroke="black" points="4452,-78 4452,-130 4654,-130 4654,-78 4452,-78"/>
</g>
<g id="clust73" class="cluster">
<title>cluster_ProfilePageModule</title>
<polygon fill="none" stroke="black" stroke-dasharray="1,5" points="5632,-70 5632,-198 5940,-198 5940,-70 5632,-70"/>
</g>
<g id="clust74" class="cluster">
<title>cluster_ProfilePageModule_declarations</title>
<polygon fill="none" stroke="black" points="5834,-78 5834,-130 5932,-130 5932,-78 5834,-78"/>
</g>
<g id="clust76" class="cluster">
<title>cluster_ProfilePageModule_imports</title>
<polygon fill="none" stroke="black" points="5640,-78 5640,-130 5826,-130 5826,-78 5640,-78"/>
</g>
<g id="clust86" class="cluster">
<title>cluster_SharedModule</title>
<polygon fill="none" stroke="black" stroke-dasharray="1,5" points="423,-138 423,-206 3416,-206 3416,-138 423,-138"/>
</g>
<g id="clust87" class="cluster">
<title>cluster_SharedModule_declarations</title>
<polygon fill="none" stroke="black" points="1940,-146 1940,-198 3408,-198 3408,-146 1940,-146"/>
</g>
<g id="clust98" class="cluster">
<title>cluster_SharedModule_exports</title>
<polygon fill="none" stroke="black" points="431,-146 431,-198 1932,-198 1932,-146 431,-146"/>
</g>
<g id="clust101" class="cluster">
<title>cluster_Tab1PageModule</title>
<polygon fill="none" stroke="black" stroke-dasharray="1,5" points="4792,-70 4792,-198 5080,-198 5080,-70 4792,-70"/>
</g>
<g id="clust102" class="cluster">
<title>cluster_Tab1PageModule_declarations</title>
<polygon fill="none" stroke="black" points="4984,-78 4984,-130 5072,-130 5072,-78 4984,-78"/>
</g>
<g id="clust104" class="cluster">
<title>cluster_Tab1PageModule_imports</title>
<polygon fill="none" stroke="black" points="4800,-78 4800,-130 4976,-130 4976,-78 4800,-78"/>
</g>
<g id="clust114" class="cluster">
<title>cluster_Tab2PageModule</title>
<polygon fill="none" stroke="black" stroke-dasharray="1,5" points="5088,-70 5088,-198 5376,-198 5376,-70 5088,-70"/>
</g>
<g id="clust115" class="cluster">
<title>cluster_Tab2PageModule_declarations</title>
<polygon fill="none" stroke="black" points="5280,-78 5280,-130 5368,-130 5368,-78 5280,-78"/>
</g>
<g id="clust117" class="cluster">
<title>cluster_Tab2PageModule_imports</title>
<polygon fill="none" stroke="black" points="5096,-78 5096,-130 5272,-130 5272,-78 5096,-78"/>
</g>
<g id="clust127" class="cluster">
<title>cluster_Tab3PageModule</title>
<polygon fill="none" stroke="black" stroke-dasharray="1,5" points="5948,-70 5948,-198 6236,-198 6236,-70 5948,-70"/>
</g>
<g id="clust128" class="cluster">
<title>cluster_Tab3PageModule_declarations</title>
<polygon fill="none" stroke="black" points="6140,-78 6140,-130 6228,-130 6228,-78 6140,-78"/>
</g>
<g id="clust130" class="cluster">
<title>cluster_Tab3PageModule_imports</title>
<polygon fill="none" stroke="black" points="5956,-78 5956,-130 6132,-130 6132,-78 5956,-78"/>
</g>
<g id="clust140" class="cluster">
<title>cluster_TabsPageModule</title>
<polygon fill="none" stroke="black" stroke-dasharray="1,5" points="6244,-70 6244,-198 6530,-198 6530,-70 6244,-70"/>
</g>
<g id="clust141" class="cluster">
<title>cluster_TabsPageModule_declarations</title>
<polygon fill="none" stroke="black" points="6436,-78 6436,-130 6522,-130 6522,-78 6436,-78"/>
</g>
<g id="clust143" class="cluster">
<title>cluster_TabsPageModule_imports</title>
<polygon fill="none" stroke="black" points="6252,-78 6252,-130 6428,-130 6428,-78 6252,-78"/>
</g>
<g id="clust153" class="cluster">
<title>cluster_TermsAndConditionsPageModule</title>
<polygon fill="none" stroke="black" stroke-dasharray="1,5" points="6538,-70 6538,-198 7012,-198 7012,-70 6538,-70"/>
</g>
<g id="clust154" class="cluster">
<title>cluster_TermsAndConditionsPageModule_declarations</title>
<polygon fill="none" stroke="black" points="6824,-78 6824,-130 7004,-130 7004,-78 6824,-78"/>
</g>
<g id="clust156" class="cluster">
<title>cluster_TermsAndConditionsPageModule_imports</title>
<polygon fill="none" stroke="black" points="6546,-78 6546,-130 6816,-130 6816,-78 6546,-78"/>
</g>
<!-- AppComponent -->
<g id="node1" class="node">
<title>AppComponent</title>
<polygon fill="#ffffb3" stroke="black" points="129.94,-122 24.06,-122 24.06,-86 129.94,-86 129.94,-122"/>
<text text-anchor="middle" x="77" y="-99.8" font-family="Times,serif" font-size="14.00">AppComponent</text>
</g>
<!-- AppModule -->
<g id="node2" class="node">
<title>AppModule</title>
<polygon fill="#8dd3c7" stroke="black" points="259.66,-190 256.66,-194 235.66,-194 232.66,-190 176.34,-190 176.34,-154 259.66,-154 259.66,-190"/>
<text text-anchor="middle" x="218" y="-167.8" font-family="Times,serif" font-size="14.00">AppModule</text>
</g>
<!-- AppComponent&#45;&gt;AppModule -->
<g id="edge1" class="edge">
<title>AppComponent&#45;&gt;AppModule</title>
<path fill="none" stroke="black" d="M77,-122.22C77,-142.37 77,-172 77,-172 77,-172 166.08,-172 166.08,-172"/>
<polygon fill="black" stroke="black" points="166.08,-175.5 176.08,-172 166.08,-168.5 166.08,-175.5"/>
</g>
<!-- AppComponent  -->
<g id="node5" class="node">
<title>AppComponent </title>
<polygon fill="#80b1d3" stroke="black" points="272.44,-258 163.56,-258 163.56,-222 272.44,-222 272.44,-258"/>
<text text-anchor="middle" x="218" y="-235.8" font-family="Times,serif" font-size="14.00">AppComponent </text>
</g>
<!-- AppModule&#45;&gt;AppComponent  -->
<g id="edge4" class="edge">
<title>AppModule&#45;&gt;AppComponent </title>
<path fill="none" stroke="black" stroke-dasharray="1,5" d="M218,-190.22C218,-190.22 218,-211.73 218,-211.73"/>
<polygon fill="black" stroke="black" points="214.5,-211.73 218,-221.73 221.5,-211.73 214.5,-211.73"/>
</g>
<!-- AppRoutingModule -->
<g id="node3" class="node">
<title>AppRoutingModule</title>
<polygon fill="#8dd3c7" stroke="black" points="282.27,-122 279.27,-126 258.27,-126 255.27,-122 153.73,-122 153.73,-86 282.27,-86 282.27,-122"/>
<text text-anchor="middle" x="218" y="-99.8" font-family="Times,serif" font-size="14.00">AppRoutingModule</text>
</g>
<!-- AppRoutingModule&#45;&gt;AppModule -->
<g id="edge2" class="edge">
<title>AppRoutingModule&#45;&gt;AppModule</title>
<path fill="none" stroke="black" d="M218,-122.22C218,-122.22 218,-143.73 218,-143.73"/>
<polygon fill="black" stroke="black" points="214.5,-143.73 218,-153.73 221.5,-143.73 214.5,-143.73"/>
</g>
<!-- SharedModule -->
<g id="node4" class="node">
<title>SharedModule</title>
<polygon fill="#8dd3c7" stroke="black" points="399.42,-122 396.42,-126 375.42,-126 372.42,-122 300.58,-122 300.58,-86 399.42,-86 399.42,-122"/>
<text text-anchor="middle" x="350" y="-99.8" font-family="Times,serif" font-size="14.00">SharedModule</text>
</g>
<!-- SharedModule&#45;&gt;AppModule -->
<g id="edge3" class="edge">
<title>SharedModule&#45;&gt;AppModule</title>
<path fill="none" stroke="black" d="M374.61,-122.29C374.61,-144.21 374.61,-178 374.61,-178 374.61,-178 269.97,-178 269.97,-178"/>
<polygon fill="black" stroke="black" points="269.97,-174.5 259.97,-178 269.97,-181.5 269.97,-174.5"/>
</g>
<!-- ChatOverviewPageModule -->
<g id="node7" class="node">
<title>ChatOverviewPageModule</title>
<polygon fill="#8dd3c7" stroke="black" points="3631.4,-190 3628.4,-194 3607.4,-194 3604.4,-190 3462.6,-190 3462.6,-154 3631.4,-154 3631.4,-190"/>
<text text-anchor="middle" x="3547" y="-167.8" font-family="Times,serif" font-size="14.00">ChatOverviewPageModule</text>
</g>
<!-- SharedModule&#45;&gt;ChatOverviewPageModule -->
<g id="edge7" class="edge">
<title>SharedModule&#45;&gt;ChatOverviewPageModule</title>
<path fill="none" stroke="black" d="M399.47,-88C794.37,-88 3420.17,-88 3420.17,-88 3420.17,-88 3420.17,-172 3420.17,-172 3420.17,-172 3452.76,-172 3452.76,-172"/>
<polygon fill="black" stroke="black" points="3452.76,-175.5 3462.76,-172 3452.76,-168.5 3452.76,-175.5"/>
</g>
<!-- CreatePageModule -->
<g id="node10" class="node">
<title>CreatePageModule</title>
<polygon fill="#8dd3c7" stroke="black" points="3987.79,-190 3984.79,-194 3963.79,-194 3960.79,-190 3864.21,-190 3864.21,-154 3987.79,-154 3987.79,-190"/>
<text text-anchor="middle" x="3926" y="-167.8" font-family="Times,serif" font-size="14.00">CreatePageModule</text>
</g>
<!-- SharedModule&#45;&gt;CreatePageModule -->
<g id="edge10" class="edge">
<title>SharedModule&#45;&gt;CreatePageModule</title>
<path fill="none" stroke="black" d="M313.09,-122.04C313.09,-134.56 313.09,-149 313.09,-149 313.09,-149 3905.45,-149 3905.45,-149 3905.45,-149 3905.45,-149.49 3905.45,-149.49"/>
<polygon fill="black" stroke="black" points="3901.95,-143.88 3905.45,-153.88 3908.95,-143.88 3901.95,-143.88"/>
</g>
<!-- LoginPageModule -->
<g id="node16" class="node">
<title>LoginPageModule</title>
<polygon fill="#8dd3c7" stroke="black" points="4297.2,-190 4294.2,-194 4273.2,-194 4270.2,-190 4176.8,-190 4176.8,-154 4297.2,-154 4297.2,-190"/>
<text text-anchor="middle" x="4237" y="-167.8" font-family="Times,serif" font-size="14.00">LoginPageModule</text>
</g>
<!-- SharedModule&#45;&gt;LoginPageModule -->
<g id="edge15" class="edge">
<title>SharedModule&#45;&gt;LoginPageModule</title>
<path fill="none" stroke="black" d="M325.39,-122.13C325.39,-132.71 325.39,-144 325.39,-144 325.39,-144 4216.97,-144 4216.97,-144 4216.97,-144 4216.97,-144.98 4216.97,-144.98"/>
<polygon fill="black" stroke="black" points="4213.47,-143.79 4216.97,-153.79 4220.47,-143.79 4213.47,-143.79"/>
</g>
<!-- MessagesPageModule -->
<g id="node19" class="node">
<title>MessagesPageModule</title>
<polygon fill="#8dd3c7" stroke="black" points="4623.68,-190 4620.68,-194 4599.68,-194 4596.68,-190 4482.32,-190 4482.32,-154 4623.68,-154 4623.68,-190"/>
<text text-anchor="middle" x="4553" y="-167.8" font-family="Times,serif" font-size="14.00">MessagesPageModule</text>
</g>
<!-- SharedModule&#45;&gt;MessagesPageModule -->
<g id="edge18" class="edge">
<title>SharedModule&#45;&gt;MessagesPageModule</title>
<path fill="none" stroke="black" d="M337.7,-122.19C337.7,-130.28 337.7,-138 337.7,-138 337.7,-138 4529.47,-138 4529.47,-138 4529.47,-138 4529.47,-143.81 4529.47,-143.81"/>
<polygon fill="black" stroke="black" points="4525.97,-143.81 4529.47,-153.81 4532.97,-143.81 4525.97,-143.81"/>
</g>
<!-- HeaderComponent  -->
<g id="node33" class="node">
<title>HeaderComponent </title>
<polygon fill="#fb8072" stroke="black" points="939.74,-190 814.26,-190 814.26,-154 939.74,-154 939.74,-190"/>
<text text-anchor="middle" x="877" y="-167.8" font-family="Times,serif" font-size="14.00">HeaderComponent </text>
</g>
<!-- SharedModule&#45;&gt;HeaderComponent  -->
<g id="edge30" class="edge">
<title>SharedModule&#45;&gt;HeaderComponent </title>
<path fill="none" stroke="black" stroke-dasharray="5,2" d="M399.58,-119C530.77,-119 877,-119 877,-119 877,-119 877,-143.76 877,-143.76"/>
<polygon fill="black" stroke="black" points="873.5,-143.76 877,-153.76 880.5,-143.76 873.5,-143.76"/>
</g>
<!-- HeaderPageSectionComponent  -->
<g id="node34" class="node">
<title>HeaderPageSectionComponent </title>
<polygon fill="#fb8072" stroke="black" points="796.45,-190 601.55,-190 601.55,-154 796.45,-154 796.45,-190"/>
<text text-anchor="middle" x="699" y="-167.8" font-family="Times,serif" font-size="14.00">HeaderPageSectionComponent </text>
</g>
<!-- SharedModule&#45;&gt;HeaderPageSectionComponent  -->
<g id="edge31" class="edge">
<title>SharedModule&#45;&gt;HeaderPageSectionComponent </title>
<path fill="none" stroke="black" stroke-dasharray="5,2" d="M399.26,-121C495.47,-121 699,-121 699,-121 699,-121 699,-143.88 699,-143.88"/>
<polygon fill="black" stroke="black" points="695.5,-143.88 699,-153.88 702.5,-143.88 695.5,-143.88"/>
</g>
<!-- InfoModalComponent  -->
<g id="node35" class="node">
<title>InfoModalComponent </title>
<polygon fill="#fb8072" stroke="black" points="583.2,-190 438.8,-190 438.8,-154 583.2,-154 583.2,-190"/>
<text text-anchor="middle" x="511" y="-167.8" font-family="Times,serif" font-size="14.00">InfoModalComponent </text>
</g>
<!-- SharedModule&#45;&gt;InfoModalComponent  -->
<g id="edge32" class="edge">
<title>SharedModule&#45;&gt;InfoModalComponent </title>
<path fill="none" stroke="black" stroke-dasharray="5,2" d="M386.91,-122.27C386.91,-140.56 386.91,-166 386.91,-166 386.91,-166 428.46,-166 428.46,-166"/>
<polygon fill="black" stroke="black" points="428.46,-169.5 438.46,-166 428.46,-162.5 428.46,-169.5"/>
</g>
<!-- ItemCardComponent  -->
<g id="node36" class="node">
<title>ItemCardComponent </title>
<polygon fill="#fb8072" stroke="black" points="1923.7,-190 1786.3,-190 1786.3,-154 1923.7,-154 1923.7,-190"/>
<text text-anchor="middle" x="1855" y="-167.8" font-family="Times,serif" font-size="14.00">ItemCardComponent </text>
</g>
<!-- SharedModule&#45;&gt;ItemCardComponent  -->
<g id="edge33" class="edge">
<title>SharedModule&#45;&gt;ItemCardComponent </title>
<path fill="none" stroke="black" stroke-dasharray="5,2" d="M399.22,-107C658.6,-107 1855,-107 1855,-107 1855,-107 1855,-143.89 1855,-143.89"/>
<polygon fill="black" stroke="black" points="1851.5,-143.89 1855,-153.89 1858.5,-143.89 1851.5,-143.89"/>
</g>
<!-- LoginComponent  -->
<g id="node37" class="node">
<title>LoginComponent </title>
<polygon fill="#fb8072" stroke="black" points="1768.28,-190 1649.72,-190 1649.72,-154 1768.28,-154 1768.28,-190"/>
<text text-anchor="middle" x="1709" y="-167.8" font-family="Times,serif" font-size="14.00">LoginComponent </text>
</g>
<!-- SharedModule&#45;&gt;LoginComponent  -->
<g id="edge34" class="edge">
<title>SharedModule&#45;&gt;LoginComponent </title>
<path fill="none" stroke="black" stroke-dasharray="5,2" d="M399.57,-109C643.99,-109 1709,-109 1709,-109 1709,-109 1709,-143.78 1709,-143.78"/>
<polygon fill="black" stroke="black" points="1705.5,-143.78 1709,-153.78 1712.5,-143.78 1705.5,-143.78"/>
</g>
<!-- PageNotFoundComponent  -->
<g id="node38" class="node">
<title>PageNotFoundComponent </title>
<polygon fill="#fb8072" stroke="black" points="1631.32,-190 1462.68,-190 1462.68,-154 1631.32,-154 1631.32,-190"/>
<text text-anchor="middle" x="1547" y="-167.8" font-family="Times,serif" font-size="14.00">PageNotFoundComponent </text>
</g>
<!-- SharedModule&#45;&gt;PageNotFoundComponent  -->
<g id="edge35" class="edge">
<title>SharedModule&#45;&gt;PageNotFoundComponent </title>
<path fill="none" stroke="black" stroke-dasharray="5,2" d="M399.53,-111C625.43,-111 1547,-111 1547,-111 1547,-111 1547,-143.7 1547,-143.7"/>
<polygon fill="black" stroke="black" points="1543.5,-143.7 1547,-153.7 1550.5,-143.7 1543.5,-143.7"/>
</g>
<!-- RegisterComponent  -->
<g id="node39" class="node">
<title>RegisterComponent </title>
<polygon fill="#fb8072" stroke="black" points="1444.99,-190 1313.01,-190 1313.01,-154 1444.99,-154 1444.99,-190"/>
<text text-anchor="middle" x="1379" y="-167.8" font-family="Times,serif" font-size="14.00">RegisterComponent </text>
</g>
<!-- SharedModule&#45;&gt;RegisterComponent  -->
<g id="edge36" class="edge">
<title>SharedModule&#45;&gt;RegisterComponent </title>
<path fill="none" stroke="black" stroke-dasharray="5,2" d="M399.28,-113C604.31,-113 1379,-113 1379,-113 1379,-113 1379,-143.98 1379,-143.98"/>
<polygon fill="black" stroke="black" points="1375.5,-143.98 1379,-153.98 1382.5,-143.98 1375.5,-143.98"/>
</g>
<!-- SearchBarComponent  -->
<g id="node40" class="node">
<title>SearchBarComponent </title>
<polygon fill="#fb8072" stroke="black" points="1295.63,-190 1152.37,-190 1152.37,-154 1295.63,-154 1295.63,-190"/>
<text text-anchor="middle" x="1224" y="-167.8" font-family="Times,serif" font-size="14.00">SearchBarComponent </text>
</g>
<!-- SharedModule&#45;&gt;SearchBarComponent  -->
<g id="edge37" class="edge">
<title>SharedModule&#45;&gt;SearchBarComponent </title>
<path fill="none" stroke="black" stroke-dasharray="5,2" d="M399.49,-115C584.38,-115 1224,-115 1224,-115 1224,-115 1224,-143.96 1224,-143.96"/>
<polygon fill="black" stroke="black" points="1220.5,-143.96 1224,-153.96 1227.5,-143.96 1220.5,-143.96"/>
</g>
<!-- SegmentControlComponent  -->
<g id="node41" class="node">
<title>SegmentControlComponent </title>
<polygon fill="#fb8072" stroke="black" points="1134.1,-190 957.9,-190 957.9,-154 1134.1,-154 1134.1,-190"/>
<text text-anchor="middle" x="1046" y="-167.8" font-family="Times,serif" font-size="14.00">SegmentControlComponent </text>
</g>
<!-- SharedModule&#45;&gt;SegmentControlComponent  -->
<g id="edge38" class="edge">
<title>SharedModule&#45;&gt;SegmentControlComponent </title>
<path fill="none" stroke="black" stroke-dasharray="5,2" d="M399.22,-117C557.94,-117 1046,-117 1046,-117 1046,-117 1046,-143.99 1046,-143.99"/>
<polygon fill="black" stroke="black" points="1042.5,-143.99 1046,-153.99 1049.5,-143.99 1042.5,-143.99"/>
</g>
<!-- Tab1PageModule -->
<g id="node43" class="node">
<title>Tab1PageModule</title>
<polygon fill="#8dd3c7" stroke="black" points="4945.53,-190 4942.53,-194 4921.53,-194 4918.53,-190 4830.47,-190 4830.47,-154 4945.53,-154 4945.53,-190"/>
<text text-anchor="middle" x="4888" y="-167.8" font-family="Times,serif" font-size="14.00">Tab1PageModule</text>
</g>
<!-- SharedModule&#45;&gt;Tab1PageModule -->
<g id="edge40" class="edge">
<title>SharedModule&#45;&gt;Tab1PageModule</title>
<path fill="none" stroke="black" d="M350,-122.2C350,-128.03 350,-133 350,-133 350,-133 4868.75,-133 4868.75,-133 4868.75,-133 4868.75,-143.87 4868.75,-143.87"/>
<polygon fill="black" stroke="black" points="4865.25,-143.87 4868.75,-153.87 4872.25,-143.87 4865.25,-143.87"/>
</g>
<!-- Tab2PageModule -->
<g id="node46" class="node">
<title>Tab2PageModule</title>
<polygon fill="#8dd3c7" stroke="black" points="5241.53,-190 5238.53,-194 5217.53,-194 5214.53,-190 5126.47,-190 5126.47,-154 5241.53,-154 5241.53,-190"/>
<text text-anchor="middle" x="5184" y="-167.8" font-family="Times,serif" font-size="14.00">Tab2PageModule</text>
</g>
<!-- SharedModule&#45;&gt;Tab2PageModule -->
<g id="edge43" class="edge">
<title>SharedModule&#45;&gt;Tab2PageModule</title>
<path fill="none" stroke="black" d="M362.3,-122.19C362.3,-125.54 362.3,-128 362.3,-128 362.3,-128 5164.75,-128 5164.75,-128 5164.75,-128 5164.75,-143.85 5164.75,-143.85"/>
<polygon fill="black" stroke="black" points="5161.25,-143.85 5164.75,-153.85 5168.25,-143.85 5161.25,-143.85"/>
</g>
<!-- ChatOverviewPage -->
<g id="node6" class="node">
<title>ChatOverviewPage</title>
<polygon fill="#ffffb3" stroke="black" points="3802.35,-122 3677.65,-122 3677.65,-86 3802.35,-86 3802.35,-122"/>
<text text-anchor="middle" x="3740" y="-99.8" font-family="Times,serif" font-size="14.00">ChatOverviewPage</text>
</g>
<!-- ChatOverviewPage&#45;&gt;ChatOverviewPageModule -->
<g id="edge5" class="edge">
<title>ChatOverviewPage&#45;&gt;ChatOverviewPageModule</title>
<path fill="none" stroke="black" d="M3740,-122.22C3740,-142.37 3740,-172 3740,-172 3740,-172 3641.37,-172 3641.37,-172"/>
<polygon fill="black" stroke="black" points="3641.37,-168.5 3631.37,-172 3641.37,-175.5 3641.37,-168.5"/>
</g>
<!-- ChatOverviewPageRoutingModule -->
<g id="node8" class="node">
<title>ChatOverviewPageRoutingModule</title>
<polygon fill="#8dd3c7" stroke="black" points="3653.52,-122 3650.52,-126 3629.52,-126 3626.52,-122 3440.48,-122 3440.48,-86 3653.52,-86 3653.52,-122"/>
<text text-anchor="middle" x="3547" y="-99.8" font-family="Times,serif" font-size="14.00">ChatOverviewPageRoutingModule</text>
</g>
<!-- ChatOverviewPageRoutingModule&#45;&gt;ChatOverviewPageModule -->
<g id="edge6" class="edge">
<title>ChatOverviewPageRoutingModule&#45;&gt;ChatOverviewPageModule</title>
<path fill="none" stroke="black" d="M3547,-122.22C3547,-122.22 3547,-143.73 3547,-143.73"/>
<polygon fill="black" stroke="black" points="3543.5,-143.73 3547,-153.73 3550.5,-143.73 3543.5,-143.73"/>
</g>
<!-- CreatePage -->
<g id="node9" class="node">
<title>CreatePage</title>
<polygon fill="#ffffb3" stroke="black" points="4113.74,-122 4034.26,-122 4034.26,-86 4113.74,-86 4113.74,-122"/>
<text text-anchor="middle" x="4074" y="-99.8" font-family="Times,serif" font-size="14.00">CreatePage</text>
</g>
<!-- CreatePage&#45;&gt;CreatePageModule -->
<g id="edge8" class="edge">
<title>CreatePage&#45;&gt;CreatePageModule</title>
<path fill="none" stroke="black" d="M4074,-122.22C4074,-142.37 4074,-172 4074,-172 4074,-172 3997.91,-172 3997.91,-172"/>
<polygon fill="black" stroke="black" points="3997.91,-168.5 3987.91,-172 3997.91,-175.5 3997.91,-168.5"/>
</g>
<!-- CreatePageRoutingModule -->
<g id="node11" class="node">
<title>CreatePageRoutingModule</title>
<polygon fill="#8dd3c7" stroke="black" points="4010.41,-122 4007.41,-126 3986.41,-126 3983.41,-122 3841.59,-122 3841.59,-86 4010.41,-86 4010.41,-122"/>
<text text-anchor="middle" x="3926" y="-99.8" font-family="Times,serif" font-size="14.00">CreatePageRoutingModule</text>
</g>
<!-- CreatePageRoutingModule&#45;&gt;CreatePageModule -->
<g id="edge9" class="edge">
<title>CreatePageRoutingModule&#45;&gt;CreatePageModule</title>
<path fill="none" stroke="black" d="M3946.55,-122.22C3946.55,-122.22 3946.55,-143.73 3946.55,-143.73"/>
<polygon fill="black" stroke="black" points="3943.05,-143.73 3946.55,-153.73 3950.05,-143.73 3943.05,-143.73"/>
</g>
<!-- ExploreContainerComponent -->
<g id="node12" class="node">
<title>ExploreContainerComponent</title>
<polygon fill="#ffffb3" stroke="black" points="5594.36,-122 5413.64,-122 5413.64,-86 5594.36,-86 5594.36,-122"/>
<text text-anchor="middle" x="5504" y="-99.8" font-family="Times,serif" font-size="14.00">ExploreContainerComponent</text>
</g>
<!-- ExploreContainerComponentModule -->
<g id="node13" class="node">
<title>ExploreContainerComponentModule</title>
<polygon fill="#8dd3c7" stroke="black" points="5616.41,-190 5613.41,-194 5592.41,-194 5589.41,-190 5391.59,-190 5391.59,-154 5616.41,-154 5616.41,-190"/>
<text text-anchor="middle" x="5504" y="-167.8" font-family="Times,serif" font-size="14.00">ExploreContainerComponentModule</text>
</g>
<!-- ExploreContainerComponent&#45;&gt;ExploreContainerComponentModule -->
<g id="edge11" class="edge">
<title>ExploreContainerComponent&#45;&gt;ExploreContainerComponentModule</title>
<path fill="none" stroke="black" d="M5504,-122.22C5504,-122.22 5504,-143.73 5504,-143.73"/>
<polygon fill="black" stroke="black" points="5500.5,-143.73 5504,-153.73 5507.5,-143.73 5500.5,-143.73"/>
</g>
<!-- ExploreContainerComponent  -->
<g id="node14" class="node">
<title>ExploreContainerComponent </title>
<polygon fill="#fb8072" stroke="black" points="5596.36,-258 5411.64,-258 5411.64,-222 5596.36,-222 5596.36,-258"/>
<text text-anchor="middle" x="5504" y="-235.8" font-family="Times,serif" font-size="14.00">ExploreContainerComponent </text>
</g>
<!-- ExploreContainerComponentModule&#45;&gt;ExploreContainerComponent  -->
<g id="edge12" class="edge">
<title>ExploreContainerComponentModule&#45;&gt;ExploreContainerComponent </title>
<path fill="none" stroke="black" stroke-dasharray="5,2" d="M5504,-190.22C5504,-190.22 5504,-211.73 5504,-211.73"/>
<polygon fill="black" stroke="black" points="5500.5,-211.73 5504,-221.73 5507.5,-211.73 5500.5,-211.73"/>
</g>
<!-- LoginPage -->
<g id="node15" class="node">
<title>LoginPage</title>
<polygon fill="#ffffb3" stroke="black" points="4420.16,-122 4343.84,-122 4343.84,-86 4420.16,-86 4420.16,-122"/>
<text text-anchor="middle" x="4382" y="-99.8" font-family="Times,serif" font-size="14.00">LoginPage</text>
</g>
<!-- LoginPage&#45;&gt;LoginPageModule -->
<g id="edge13" class="edge">
<title>LoginPage&#45;&gt;LoginPageModule</title>
<path fill="none" stroke="black" d="M4382,-122.22C4382,-142.37 4382,-172 4382,-172 4382,-172 4307.23,-172 4307.23,-172"/>
<polygon fill="black" stroke="black" points="4307.23,-168.5 4297.23,-172 4307.23,-175.5 4307.23,-168.5"/>
</g>
<!-- LoginPageRoutingModule -->
<g id="node17" class="node">
<title>LoginPageRoutingModule</title>
<polygon fill="#8dd3c7" stroke="black" points="4319.82,-122 4316.82,-126 4295.82,-126 4292.82,-122 4154.18,-122 4154.18,-86 4319.82,-86 4319.82,-122"/>
<text text-anchor="middle" x="4237" y="-99.8" font-family="Times,serif" font-size="14.00">LoginPageRoutingModule</text>
</g>
<!-- LoginPageRoutingModule&#45;&gt;LoginPageModule -->
<g id="edge14" class="edge">
<title>LoginPageRoutingModule&#45;&gt;LoginPageModule</title>
<path fill="none" stroke="black" d="M4257.03,-122.22C4257.03,-122.22 4257.03,-143.73 4257.03,-143.73"/>
<polygon fill="black" stroke="black" points="4253.53,-143.73 4257.03,-153.73 4260.53,-143.73 4253.53,-143.73"/>
</g>
<!-- MessagesPage -->
<g id="node18" class="node">
<title>MessagesPage</title>
<polygon fill="#ffffb3" stroke="black" points="4767.63,-122 4670.37,-122 4670.37,-86 4767.63,-86 4767.63,-122"/>
<text text-anchor="middle" x="4719" y="-99.8" font-family="Times,serif" font-size="14.00">MessagesPage</text>
</g>
<!-- MessagesPage&#45;&gt;MessagesPageModule -->
<g id="edge16" class="edge">
<title>MessagesPage&#45;&gt;MessagesPageModule</title>
<path fill="none" stroke="black" d="M4719,-122.22C4719,-142.37 4719,-172 4719,-172 4719,-172 4633.88,-172 4633.88,-172"/>
<polygon fill="black" stroke="black" points="4633.88,-168.5 4623.88,-172 4633.88,-175.5 4633.88,-168.5"/>
</g>
<!-- MessagesPageRoutingModule -->
<g id="node20" class="node">
<title>MessagesPageRoutingModule</title>
<polygon fill="#8dd3c7" stroke="black" points="4646.3,-122 4643.3,-126 4622.3,-126 4619.3,-122 4459.7,-122 4459.7,-86 4646.3,-86 4646.3,-122"/>
<text text-anchor="middle" x="4553" y="-99.8" font-family="Times,serif" font-size="14.00">MessagesPageRoutingModule</text>
</g>
<!-- MessagesPageRoutingModule&#45;&gt;MessagesPageModule -->
<g id="edge17" class="edge">
<title>MessagesPageRoutingModule&#45;&gt;MessagesPageModule</title>
<path fill="none" stroke="black" d="M4576.53,-122.22C4576.53,-122.22 4576.53,-143.73 4576.53,-143.73"/>
<polygon fill="black" stroke="black" points="4573.03,-143.73 4576.53,-153.73 4580.03,-143.73 4573.03,-143.73"/>
</g>
<!-- ProfilePage -->
<g id="node21" class="node">
<title>ProfilePage</title>
<polygon fill="#ffffb3" stroke="black" points="5923.81,-122 5842.19,-122 5842.19,-86 5923.81,-86 5923.81,-122"/>
<text text-anchor="middle" x="5883" y="-99.8" font-family="Times,serif" font-size="14.00">ProfilePage</text>
</g>
<!-- ProfilePageModule -->
<g id="node22" class="node">
<title>ProfilePageModule</title>
<polygon fill="#8dd3c7" stroke="black" points="5863.36,-190 5860.36,-194 5839.36,-194 5836.36,-190 5738.64,-190 5738.64,-154 5863.36,-154 5863.36,-190"/>
<text text-anchor="middle" x="5801" y="-167.8" font-family="Times,serif" font-size="14.00">ProfilePageModule</text>
</g>
<!-- ProfilePage&#45;&gt;ProfilePageModule -->
<g id="edge19" class="edge">
<title>ProfilePage&#45;&gt;ProfilePageModule</title>
<path fill="none" stroke="black" d="M5852.89,-122.22C5852.89,-122.22 5852.89,-143.73 5852.89,-143.73"/>
<polygon fill="black" stroke="black" points="5849.39,-143.73 5852.89,-153.73 5856.39,-143.73 5849.39,-143.73"/>
</g>
<!-- ProfilePageRoutingModule -->
<g id="node23" class="node">
<title>ProfilePageRoutingModule</title>
<polygon fill="#8dd3c7" stroke="black" points="5817.98,-122 5814.98,-126 5793.98,-126 5790.98,-122 5648.02,-122 5648.02,-86 5817.98,-86 5817.98,-122"/>
<text text-anchor="middle" x="5733" y="-99.8" font-family="Times,serif" font-size="14.00">ProfilePageRoutingModule</text>
</g>
<!-- ProfilePageRoutingModule&#45;&gt;ProfilePageModule -->
<g id="edge20" class="edge">
<title>ProfilePageRoutingModule&#45;&gt;ProfilePageModule</title>
<path fill="none" stroke="black" d="M5778.28,-122.22C5778.28,-122.22 5778.28,-143.73 5778.28,-143.73"/>
<polygon fill="black" stroke="black" points="5774.78,-143.73 5778.28,-153.73 5781.78,-143.73 5774.78,-143.73"/>
</g>
<!-- HeaderComponent -->
<g id="node24" class="node">
<title>HeaderComponent</title>
<polygon fill="#ffffb3" stroke="black" points="2437.74,-190 2316.26,-190 2316.26,-154 2437.74,-154 2437.74,-190"/>
<text text-anchor="middle" x="2377" y="-167.8" font-family="Times,serif" font-size="14.00">HeaderComponent</text>
</g>
<!-- HeaderComponent&#45;&gt;SharedModule -->
<g id="edge21" class="edge">
<title>HeaderComponent&#45;&gt;SharedModule</title>
<path fill="none" stroke="black" d="M2377,-153.97C2377,-133.23 2377,-102 2377,-102 2377,-102 409.35,-102 409.35,-102"/>
<polygon fill="black" stroke="black" points="409.35,-98.5 399.35,-102 409.35,-105.5 409.35,-98.5"/>
</g>
<!-- HeaderPageSectionComponent -->
<g id="node25" class="node">
<title>HeaderPageSectionComponent</title>
<polygon fill="#ffffb3" stroke="black" points="2298.45,-190 2107.55,-190 2107.55,-154 2298.45,-154 2298.45,-190"/>
<text text-anchor="middle" x="2203" y="-167.8" font-family="Times,serif" font-size="14.00">HeaderPageSectionComponent</text>
</g>
<!-- HeaderPageSectionComponent&#45;&gt;SharedModule -->
<g id="edge22" class="edge">
<title>HeaderPageSectionComponent&#45;&gt;SharedModule</title>
<path fill="none" stroke="black" d="M2203,-153.78C2203,-133.63 2203,-104 2203,-104 2203,-104 409.56,-104 409.56,-104"/>
<polygon fill="black" stroke="black" points="409.56,-100.5 399.56,-104 409.56,-107.5 409.56,-100.5"/>
</g>
<!-- InfoModalComponent -->
<g id="node26" class="node">
<title>InfoModalComponent</title>
<polygon fill="#ffffb3" stroke="black" points="2089.7,-190 1948.3,-190 1948.3,-154 2089.7,-154 2089.7,-190"/>
<text text-anchor="middle" x="2019" y="-167.8" font-family="Times,serif" font-size="14.00">InfoModalComponent</text>
</g>
<!-- InfoModalComponent&#45;&gt;SharedModule -->
<g id="edge23" class="edge">
<title>InfoModalComponent&#45;&gt;SharedModule</title>
<path fill="none" stroke="black" d="M2019,-153.69C2019,-133.85 2019,-105 2019,-105 2019,-105 409.5,-105 409.5,-105"/>
<polygon fill="black" stroke="black" points="409.5,-101.5 399.5,-105 409.5,-108.5 409.5,-101.5"/>
</g>
<!-- ItemCardComponent -->
<g id="node27" class="node">
<title>ItemCardComponent</title>
<polygon fill="#ffffb3" stroke="black" points="3400.2,-190 3265.8,-190 3265.8,-154 3400.2,-154 3400.2,-190"/>
<text text-anchor="middle" x="3333" y="-167.8" font-family="Times,serif" font-size="14.00">ItemCardComponent</text>
</g>
<!-- ItemCardComponent&#45;&gt;SharedModule -->
<g id="edge24" class="edge">
<title>ItemCardComponent&#45;&gt;SharedModule</title>
<path fill="none" stroke="black" d="M3333,-153.8C3333,-129.64 3333,-90 3333,-90 3333,-90 409.29,-90 409.29,-90"/>
<polygon fill="black" stroke="black" points="409.29,-86.5 399.29,-90 409.29,-93.5 409.29,-86.5"/>
</g>
<!-- LoginComponent -->
<g id="node28" class="node">
<title>LoginComponent</title>
<polygon fill="#ffffb3" stroke="black" points="3248.28,-190 3133.72,-190 3133.72,-154 3248.28,-154 3248.28,-190"/>
<text text-anchor="middle" x="3191" y="-167.8" font-family="Times,serif" font-size="14.00">LoginComponent</text>
</g>
<!-- LoginComponent&#45;&gt;SharedModule -->
<g id="edge25" class="edge">
<title>LoginComponent&#45;&gt;SharedModule</title>
<path fill="none" stroke="black" d="M3191,-153.85C3191,-130.24 3191,-92 3191,-92 3191,-92 409.31,-92 409.31,-92"/>
<polygon fill="black" stroke="black" points="409.31,-88.5 399.31,-92 409.31,-95.5 409.31,-88.5"/>
</g>
<!-- PageNotFoundComponent -->
<g id="node29" class="node">
<title>PageNotFoundComponent</title>
<polygon fill="#ffffb3" stroke="black" points="3115.82,-190 2950.18,-190 2950.18,-154 3115.82,-154 3115.82,-190"/>
<text text-anchor="middle" x="3033" y="-167.8" font-family="Times,serif" font-size="14.00">PageNotFoundComponent</text>
</g>
<!-- PageNotFoundComponent&#45;&gt;SharedModule -->
<g id="edge26" class="edge">
<title>PageNotFoundComponent&#45;&gt;SharedModule</title>
<path fill="none" stroke="black" d="M3033,-153.91C3033,-130.87 3033,-94 3033,-94 3033,-94 409.44,-94 409.44,-94"/>
<polygon fill="black" stroke="black" points="409.44,-90.5 399.44,-94 409.44,-97.5 409.44,-90.5"/>
</g>
<!-- RegisterComponent -->
<g id="node30" class="node">
<title>RegisterComponent</title>
<polygon fill="#ffffb3" stroke="black" points="2931.98,-190 2804.02,-190 2804.02,-154 2931.98,-154 2931.98,-190"/>
<text text-anchor="middle" x="2868" y="-167.8" font-family="Times,serif" font-size="14.00">RegisterComponent</text>
</g>
<!-- RegisterComponent&#45;&gt;SharedModule -->
<g id="edge27" class="edge">
<title>RegisterComponent&#45;&gt;SharedModule</title>
<path fill="none" stroke="black" d="M2868,-153.99C2868,-131.51 2868,-96 2868,-96 2868,-96 409.45,-96 409.45,-96"/>
<polygon fill="black" stroke="black" points="409.45,-92.5 399.45,-96 409.45,-99.5 409.45,-92.5"/>
</g>
<!-- SearchBarComponent -->
<g id="node31" class="node">
<title>SearchBarComponent</title>
<polygon fill="#ffffb3" stroke="black" points="2785.63,-190 2646.37,-190 2646.37,-154 2785.63,-154 2785.63,-190"/>
<text text-anchor="middle" x="2716" y="-167.8" font-family="Times,serif" font-size="14.00">SearchBarComponent</text>
</g>
<!-- SearchBarComponent&#45;&gt;SharedModule -->
<g id="edge28" class="edge">
<title>SearchBarComponent&#45;&gt;SharedModule</title>
<path fill="none" stroke="black" d="M2716,-153.71C2716,-131.79 2716,-98 2716,-98 2716,-98 409.42,-98 409.42,-98"/>
<polygon fill="black" stroke="black" points="409.42,-94.5 399.42,-98 409.42,-101.5 409.42,-94.5"/>
</g>
<!-- SegmentControlComponent -->
<g id="node32" class="node">
<title>SegmentControlComponent</title>
<polygon fill="#ffffb3" stroke="black" points="2628.6,-190 2455.4,-190 2455.4,-154 2628.6,-154 2628.6,-190"/>
<text text-anchor="middle" x="2542" y="-167.8" font-family="Times,serif" font-size="14.00">SegmentControlComponent</text>
</g>
<!-- SegmentControlComponent&#45;&gt;SharedModule -->
<g id="edge29" class="edge">
<title>SegmentControlComponent&#45;&gt;SharedModule</title>
<path fill="none" stroke="black" d="M2542,-153.83C2542,-132.5 2542,-100 2542,-100 2542,-100 409.38,-100 409.38,-100"/>
<polygon fill="black" stroke="black" points="409.38,-96.5 399.38,-100 409.38,-103.5 409.38,-96.5"/>
</g>
<!-- Tab1Page -->
<g id="node42" class="node">
<title>Tab1Page</title>
<polygon fill="#ffffb3" stroke="black" points="5063.98,-122 4992.02,-122 4992.02,-86 5063.98,-86 5063.98,-122"/>
<text text-anchor="middle" x="5028" y="-99.8" font-family="Times,serif" font-size="14.00">Tab1Page</text>
</g>
<!-- Tab1Page&#45;&gt;Tab1PageModule -->
<g id="edge39" class="edge">
<title>Tab1Page&#45;&gt;Tab1PageModule</title>
<path fill="none" stroke="black" d="M5028,-122.22C5028,-142.37 5028,-172 5028,-172 5028,-172 4955.75,-172 4955.75,-172"/>
<polygon fill="black" stroke="black" points="4955.75,-168.5 4945.75,-172 4955.75,-175.5 4955.75,-168.5"/>
</g>
<!-- Tab1PageRoutingModule -->
<g id="node44" class="node">
<title>Tab1PageRoutingModule</title>
<polygon fill="#8dd3c7" stroke="black" points="4968.15,-122 4965.15,-126 4944.15,-126 4941.15,-122 4807.85,-122 4807.85,-86 4968.15,-86 4968.15,-122"/>
<text text-anchor="middle" x="4888" y="-99.8" font-family="Times,serif" font-size="14.00">Tab1PageRoutingModule</text>
</g>
<!-- Tab1PageRoutingModule&#45;&gt;Tab1PageModule -->
<g id="edge41" class="edge">
<title>Tab1PageRoutingModule&#45;&gt;Tab1PageModule</title>
<path fill="none" stroke="black" d="M4907.25,-122.22C4907.25,-122.22 4907.25,-143.73 4907.25,-143.73"/>
<polygon fill="black" stroke="black" points="4903.75,-143.73 4907.25,-153.73 4910.75,-143.73 4903.75,-143.73"/>
</g>
<!-- Tab2Page -->
<g id="node45" class="node">
<title>Tab2Page</title>
<polygon fill="#ffffb3" stroke="black" points="5359.98,-122 5288.02,-122 5288.02,-86 5359.98,-86 5359.98,-122"/>
<text text-anchor="middle" x="5324" y="-99.8" font-family="Times,serif" font-size="14.00">Tab2Page</text>
</g>
<!-- Tab2Page&#45;&gt;Tab2PageModule -->
<g id="edge42" class="edge">
<title>Tab2Page&#45;&gt;Tab2PageModule</title>
<path fill="none" stroke="black" d="M5324,-122.22C5324,-142.37 5324,-172 5324,-172 5324,-172 5251.75,-172 5251.75,-172"/>
<polygon fill="black" stroke="black" points="5251.75,-168.5 5241.75,-172 5251.75,-175.5 5251.75,-168.5"/>
</g>
<!-- Tab2PageRoutingModule -->
<g id="node47" class="node">
<title>Tab2PageRoutingModule</title>
<polygon fill="#8dd3c7" stroke="black" points="5264.15,-122 5261.15,-126 5240.15,-126 5237.15,-122 5103.85,-122 5103.85,-86 5264.15,-86 5264.15,-122"/>
<text text-anchor="middle" x="5184" y="-99.8" font-family="Times,serif" font-size="14.00">Tab2PageRoutingModule</text>
</g>
<!-- Tab2PageRoutingModule&#45;&gt;Tab2PageModule -->
<g id="edge44" class="edge">
<title>Tab2PageRoutingModule&#45;&gt;Tab2PageModule</title>
<path fill="none" stroke="black" d="M5203.25,-122.22C5203.25,-122.22 5203.25,-143.73 5203.25,-143.73"/>
<polygon fill="black" stroke="black" points="5199.75,-143.73 5203.25,-153.73 5206.75,-143.73 5199.75,-143.73"/>
</g>
<!-- Tab3Page -->
<g id="node48" class="node">
<title>Tab3Page</title>
<polygon fill="#ffffb3" stroke="black" points="6219.98,-122 6148.02,-122 6148.02,-86 6219.98,-86 6219.98,-122"/>
<text text-anchor="middle" x="6184" y="-99.8" font-family="Times,serif" font-size="14.00">Tab3Page</text>
</g>
<!-- Tab3PageModule -->
<g id="node49" class="node">
<title>Tab3PageModule</title>
<polygon fill="#8dd3c7" stroke="black" points="6164.53,-190 6161.53,-194 6140.53,-194 6137.53,-190 6049.47,-190 6049.47,-154 6164.53,-154 6164.53,-190"/>
<text text-anchor="middle" x="6107" y="-167.8" font-family="Times,serif" font-size="14.00">Tab3PageModule</text>
</g>
<!-- Tab3Page&#45;&gt;Tab3PageModule -->
<g id="edge45" class="edge">
<title>Tab3Page&#45;&gt;Tab3PageModule</title>
<path fill="none" stroke="black" d="M6156.39,-122.22C6156.39,-122.22 6156.39,-143.73 6156.39,-143.73"/>
<polygon fill="black" stroke="black" points="6152.89,-143.73 6156.39,-153.73 6159.89,-143.73 6152.89,-143.73"/>
</g>
<!-- Tab3PageRoutingModule -->
<g id="node50" class="node">
<title>Tab3PageRoutingModule</title>
<polygon fill="#8dd3c7" stroke="black" points="6124.15,-122 6121.15,-126 6100.15,-126 6097.15,-122 5963.85,-122 5963.85,-86 6124.15,-86 6124.15,-122"/>
<text text-anchor="middle" x="6044" y="-99.8" font-family="Times,serif" font-size="14.00">Tab3PageRoutingModule</text>
</g>
<!-- Tab3PageRoutingModule&#45;&gt;Tab3PageModule -->
<g id="edge46" class="edge">
<title>Tab3PageRoutingModule&#45;&gt;Tab3PageModule</title>
<path fill="none" stroke="black" d="M6086.78,-122.22C6086.78,-122.22 6086.78,-143.73 6086.78,-143.73"/>
<polygon fill="black" stroke="black" points="6083.28,-143.73 6086.78,-153.73 6090.28,-143.73 6083.28,-143.73"/>
</g>
<!-- TabsPage -->
<g id="node51" class="node">
<title>TabsPage</title>
<polygon fill="#ffffb3" stroke="black" points="6514.42,-122 6443.58,-122 6443.58,-86 6514.42,-86 6514.42,-122"/>
<text text-anchor="middle" x="6479" y="-99.8" font-family="Times,serif" font-size="14.00">TabsPage</text>
</g>
<!-- TabsPageModule -->
<g id="node52" class="node">
<title>TabsPageModule</title>
<polygon fill="#8dd3c7" stroke="black" points="6458.97,-190 6455.97,-194 6434.97,-194 6431.97,-190 6345.03,-190 6345.03,-154 6458.97,-154 6458.97,-190"/>
<text text-anchor="middle" x="6402" y="-167.8" font-family="Times,serif" font-size="14.00">TabsPageModule</text>
</g>
<!-- TabsPage&#45;&gt;TabsPageModule -->
<g id="edge47" class="edge">
<title>TabsPage&#45;&gt;TabsPageModule</title>
<path fill="none" stroke="black" d="M6451.39,-122.22C6451.39,-122.22 6451.39,-143.73 6451.39,-143.73"/>
<polygon fill="black" stroke="black" points="6447.89,-143.73 6451.39,-153.73 6454.89,-143.73 6447.89,-143.73"/>
</g>
<!-- TabsPageRoutingModule -->
<g id="node53" class="node">
<title>TabsPageRoutingModule</title>
<polygon fill="#8dd3c7" stroke="black" points="6419.59,-122 6416.59,-126 6395.59,-126 6392.59,-122 6260.41,-122 6260.41,-86 6419.59,-86 6419.59,-122"/>
<text text-anchor="middle" x="6340" y="-99.8" font-family="Times,serif" font-size="14.00">TabsPageRoutingModule</text>
</g>
<!-- TabsPageRoutingModule&#45;&gt;TabsPageModule -->
<g id="edge48" class="edge">
<title>TabsPageRoutingModule&#45;&gt;TabsPageModule</title>
<path fill="none" stroke="black" d="M6382.28,-122.22C6382.28,-122.22 6382.28,-143.73 6382.28,-143.73"/>
<polygon fill="black" stroke="black" points="6378.78,-143.73 6382.28,-153.73 6385.78,-143.73 6378.78,-143.73"/>
</g>
<!-- TermsAndConditionsPage -->
<g id="node54" class="node">
<title>TermsAndConditionsPage</title>
<polygon fill="#ffffb3" stroke="black" points="6996.04,-122 6831.96,-122 6831.96,-86 6996.04,-86 6996.04,-122"/>
<text text-anchor="middle" x="6914" y="-99.8" font-family="Times,serif" font-size="14.00">TermsAndConditionsPage</text>
</g>
<!-- TermsAndConditionsPageModule -->
<g id="node55" class="node">
<title>TermsAndConditionsPageModule</title>
<polygon fill="#8dd3c7" stroke="black" points="6894.08,-190 6891.08,-194 6870.08,-194 6867.08,-190 6685.92,-190 6685.92,-154 6894.08,-154 6894.08,-190"/>
<text text-anchor="middle" x="6790" y="-167.8" font-family="Times,serif" font-size="14.00">TermsAndConditionsPageModule</text>
</g>
<!-- TermsAndConditionsPage&#45;&gt;TermsAndConditionsPageModule -->
<g id="edge49" class="edge">
<title>TermsAndConditionsPage&#45;&gt;TermsAndConditionsPageModule</title>
<path fill="none" stroke="black" d="M6862.89,-122.22C6862.89,-122.22 6862.89,-143.73 6862.89,-143.73"/>
<polygon fill="black" stroke="black" points="6859.39,-143.73 6862.89,-153.73 6866.39,-143.73 6859.39,-143.73"/>
</g>
<!-- TermsAndConditionsPageRoutingModule -->
<g id="node56" class="node">
<title>TermsAndConditionsPageRoutingModule</title>
<polygon fill="#8dd3c7" stroke="black" points="6807.7,-122 6804.7,-126 6783.7,-126 6780.7,-122 6554.3,-122 6554.3,-86 6807.7,-86 6807.7,-122"/>
<text text-anchor="middle" x="6681" y="-99.8" font-family="Times,serif" font-size="14.00">TermsAndConditionsPageRoutingModule</text>
</g>
<!-- TermsAndConditionsPageRoutingModule&#45;&gt;TermsAndConditionsPageModule -->
<g id="edge50" class="edge">
<title>TermsAndConditionsPageRoutingModule&#45;&gt;TermsAndConditionsPageModule</title>
<path fill="none" stroke="black" d="M6746.78,-122.22C6746.78,-122.22 6746.78,-143.73 6746.78,-143.73"/>
<polygon fill="black" stroke="black" points="6743.28,-143.73 6746.78,-153.73 6750.28,-143.73 6743.28,-143.73"/>
</g>
</g>
</svg>
