<?xml version="1.0" encoding="UTF-8" standalone="no"?>
<!DOCTYPE svg PUBLIC "-//W3C//DTD SVG 1.1//EN"
 "http://www.w3.org/Graphics/SVG/1.1/DTD/svg11.dtd">
<!-- Generated by graphviz version 2.47.0 (20210316.0004)
 -->
<!-- Title: dependencies Pages: 1 -->
<svg width="504pt" height="211pt"
 viewBox="0.00 0.00 504.00 211.00" xmlns="http://www.w3.org/2000/svg" xmlns:xlink="http://www.w3.org/1999/xlink">
<g id="graph0" class="graph" transform="scale(1 1) rotate(0) translate(4 207)">
<title>dependencies</title>
<polygon fill="white" stroke="transparent" points="-4,4 -4,-207 500,-207 500,4 -4,4"/>
<text text-anchor="start" x="227.01" y="-42.4" font-family="Times-12" font-weight="bold" font-size="14.00">Legend</text>
<polygon fill="#ffffb3" stroke="transparent" points="14,-10 14,-30 34,-30 34,-10 14,-10"/>
<text text-anchor="start" x="37.63" y="-15.4" font-family="Times-12" font-size="14.00"> &#160;Declarations</text>
<polygon fill="#8dd3c7" stroke="transparent" points="127,-10 127,-30 147,-30 147,-10 127,-10"/>
<text text-anchor="start" x="150.73" y="-15.4" font-family="Times-12" font-size="14.00"> &#160;Module</text>
<polygon fill="#80b1d3" stroke="transparent" points="213,-10 213,-30 233,-30 233,-10 213,-10"/>
<text text-anchor="start" x="236.78" y="-15.4" font-family="Times-12" font-size="14.00"> &#160;Bootstrap</text>
<polygon fill="#fdb462" stroke="transparent" points="310,-10 310,-30 330,-30 330,-10 310,-10"/>
<text text-anchor="start" x="333.67" y="-15.4" font-family="Times-12" font-size="14.00"> &#160;Providers</text>
<polygon fill="#fb8072" stroke="transparent" points="406,-10 406,-30 426,-30 426,-10 406,-10"/>
<text text-anchor="start" x="429.73" y="-15.4" font-family="Times-12" font-size="14.00"> &#160;Exports</text>
<g id="clust1" class="cluster">
<title>cluster_Tab1PageModule</title>
<polygon fill="none" stroke="black" stroke-dasharray="1,5" points="45.5,-70 45.5,-195 450.5,-195 450.5,-70 45.5,-70"/>
</g>
<g id="clust2" class="cluster">
<title>cluster_Tab1PageModule_declarations</title>
<polygon fill="none" stroke="black" points="354.5,-78 354.5,-130 442.5,-130 442.5,-78 354.5,-78"/>
</g>
<g id="clust4" class="cluster">
<title>cluster_Tab1PageModule_imports</title>
<polygon fill="none" stroke="black" points="53.5,-78 53.5,-130 346.5,-130 346.5,-78 53.5,-78"/>
</g>
<!-- Tab1Page -->
<g id="node1" class="node">
<title>Tab1Page</title>
<polygon fill="#ffffb3" stroke="black" points="434.48,-122 362.52,-122 362.52,-86 434.48,-86 434.48,-122"/>
<text text-anchor="middle" x="398.5" y="-99.8" font-family="Times,serif" font-size="14.00">Tab1Page</text>
</g>
<!-- Tab1PageModule -->
<g id="node2" class="node">
<title>Tab1PageModule</title>
<polygon fill="#8dd3c7" stroke="black" points="347.03,-187 344.03,-191 323.03,-191 320.03,-187 231.97,-187 231.97,-151 347.03,-151 347.03,-187"/>
<text text-anchor="middle" x="289.5" y="-164.8" font-family="Times,serif" font-size="14.00">Tab1PageModule</text>
</g>
<!-- Tab1Page&#45;&gt;Tab1PageModule -->
<g id="edge1" class="edge">
<title>Tab1Page&#45;&gt;Tab1PageModule</title>
<path fill="none" stroke="black" d="M362.4,-104C351.8,-104 342.99,-104 342.99,-104 342.99,-104 342.99,-140.89 342.99,-140.89"/>
<polygon fill="black" stroke="black" points="339.49,-140.89 342.99,-150.89 346.49,-140.89 339.49,-140.89"/>
</g>
<!-- SharedModule -->
<g id="node3" class="node">
<title>SharedModule</title>
<polygon fill="#8dd3c7" stroke="black" points="338.92,-122 335.92,-126 314.92,-126 311.92,-122 240.08,-122 240.08,-86 338.92,-86 338.92,-122"/>
<text text-anchor="middle" x="289.5" y="-99.8" font-family="Times,serif" font-size="14.00">SharedModule</text>
</g>
<!-- SharedModule&#45;&gt;Tab1PageModule -->
<g id="edge2" class="edge">
<title>SharedModule&#45;&gt;Tab1PageModule</title>
<path fill="none" stroke="black" d="M289.5,-122.11C289.5,-122.11 289.5,-140.99 289.5,-140.99"/>
<polygon fill="black" stroke="black" points="286,-140.99 289.5,-150.99 293,-140.99 286,-140.99"/>
</g>
<!-- Tab1PageRoutingModule -->
<g id="node4" class="node">
<title>Tab1PageRoutingModule</title>
<polygon fill="#8dd3c7" stroke="black" points="221.65,-122 218.65,-126 197.65,-126 194.65,-122 61.35,-122 61.35,-86 221.65,-86 221.65,-122"/>
<text text-anchor="middle" x="141.5" y="-99.8" font-family="Times,serif" font-size="14.00">Tab1PageRoutingModule</text>
</g>
<!-- Tab1PageRoutingModule&#45;&gt;Tab1PageModule -->
<g id="edge3" class="edge">
<title>Tab1PageRoutingModule&#45;&gt;Tab1PageModule</title>
<path fill="none" stroke="black" d="M221.66,-104C230.29,-104 236.01,-104 236.01,-104 236.01,-104 236.01,-140.89 236.01,-140.89"/>
<polygon fill="black" stroke="black" points="232.51,-140.89 236.01,-150.89 239.51,-140.89 232.51,-140.89"/>
</g>
</g>
</svg>
