<?xml version="1.0" encoding="UTF-8" standalone="no"?>
<!DOCTYPE svg PUBLIC "-//W3C//DTD SVG 1.1//EN"
 "http://www.w3.org/Graphics/SVG/1.1/DTD/svg11.dtd">
<!-- Generated by graphviz version 2.47.0 (20210316.0004)
 -->
<!-- Title: dependencies Pages: 1 -->
<svg width="504pt" height="211pt"
 viewBox="0.00 0.00 504.00 211.00" xmlns="http://www.w3.org/2000/svg" xmlns:xlink="http://www.w3.org/1999/xlink">
<g id="graph0" class="graph" transform="scale(1 1) rotate(0) translate(4 207)">
<title>dependencies</title>
<polygon fill="white" stroke="transparent" points="-4,4 -4,-207 500,-207 500,4 -4,4"/>
<text text-anchor="start" x="227.01" y="-42.4" font-family="Times-12" font-weight="bold" font-size="14.00">Legend</text>
<polygon fill="#ffffb3" stroke="transparent" points="14,-10 14,-30 34,-30 34,-10 14,-10"/>
<text text-anchor="start" x="37.63" y="-15.4" font-family="Times-12" font-size="14.00"> &#160;Declarations</text>
<polygon fill="#8dd3c7" stroke="transparent" points="127,-10 127,-30 147,-30 147,-10 127,-10"/>
<text text-anchor="start" x="150.73" y="-15.4" font-family="Times-12" font-size="14.00"> &#160;Module</text>
<polygon fill="#80b1d3" stroke="transparent" points="213,-10 213,-30 233,-30 233,-10 213,-10"/>
<text text-anchor="start" x="236.78" y="-15.4" font-family="Times-12" font-size="14.00"> &#160;Bootstrap</text>
<polygon fill="#fdb462" stroke="transparent" points="310,-10 310,-30 330,-30 330,-10 310,-10"/>
<text text-anchor="start" x="333.67" y="-15.4" font-family="Times-12" font-size="14.00"> &#160;Providers</text>
<polygon fill="#fb8072" stroke="transparent" points="406,-10 406,-30 426,-30 426,-10 406,-10"/>
<text text-anchor="start" x="429.73" y="-15.4" font-family="Times-12" font-size="14.00"> &#160;Exports</text>
<g id="clust1" class="cluster">
<title>cluster_CreatePageModule</title>
<polygon fill="none" stroke="black" stroke-dasharray="1,5" points="38,-70 38,-195 458,-195 458,-70 38,-70"/>
</g>
<g id="clust2" class="cluster">
<title>cluster_CreatePageModule_declarations</title>
<polygon fill="none" stroke="black" points="354,-78 354,-130 450,-130 450,-78 354,-78"/>
</g>
<g id="clust4" class="cluster">
<title>cluster_CreatePageModule_imports</title>
<polygon fill="none" stroke="black" points="46,-78 46,-130 346,-130 346,-78 46,-78"/>
</g>
<!-- CreatePage -->
<g id="node1" class="node">
<title>CreatePage</title>
<polygon fill="#ffffb3" stroke="black" points="441.74,-122 362.26,-122 362.26,-86 441.74,-86 441.74,-122"/>
<text text-anchor="middle" x="402" y="-99.8" font-family="Times,serif" font-size="14.00">CreatePage</text>
</g>
<!-- CreatePageModule -->
<g id="node2" class="node">
<title>CreatePageModule</title>
<polygon fill="#8dd3c7" stroke="black" points="315.79,-187 312.79,-191 291.79,-191 288.79,-187 192.21,-187 192.21,-151 315.79,-151 315.79,-187"/>
<text text-anchor="middle" x="254" y="-164.8" font-family="Times,serif" font-size="14.00">CreatePageModule</text>
</g>
<!-- CreatePage&#45;&gt;CreatePageModule -->
<g id="edge1" class="edge">
<title>CreatePage&#45;&gt;CreatePageModule</title>
<path fill="none" stroke="black" d="M402,-122.11C402,-141.34 402,-169 402,-169 402,-169 325.91,-169 325.91,-169"/>
<polygon fill="black" stroke="black" points="325.91,-165.5 315.91,-169 325.91,-172.5 325.91,-165.5"/>
</g>
<!-- CreatePageRoutingModule -->
<g id="node3" class="node">
<title>CreatePageRoutingModule</title>
<polygon fill="#8dd3c7" stroke="black" points="338.41,-122 335.41,-126 314.41,-126 311.41,-122 169.59,-122 169.59,-86 338.41,-86 338.41,-122"/>
<text text-anchor="middle" x="254" y="-99.8" font-family="Times,serif" font-size="14.00">CreatePageRoutingModule</text>
</g>
<!-- CreatePageRoutingModule&#45;&gt;CreatePageModule -->
<g id="edge2" class="edge">
<title>CreatePageRoutingModule&#45;&gt;CreatePageModule</title>
<path fill="none" stroke="black" d="M254,-122.11C254,-122.11 254,-140.99 254,-140.99"/>
<polygon fill="black" stroke="black" points="250.5,-140.99 254,-150.99 257.5,-140.99 250.5,-140.99"/>
</g>
<!-- SharedModule -->
<g id="node4" class="node">
<title>SharedModule</title>
<polygon fill="#8dd3c7" stroke="black" points="152.42,-122 149.42,-126 128.42,-126 125.42,-122 53.58,-122 53.58,-86 152.42,-86 152.42,-122"/>
<text text-anchor="middle" x="103" y="-99.8" font-family="Times,serif" font-size="14.00">SharedModule</text>
</g>
<!-- SharedModule&#45;&gt;CreatePageModule -->
<g id="edge3" class="edge">
<title>SharedModule&#45;&gt;CreatePageModule</title>
<path fill="none" stroke="black" d="M103,-122.11C103,-141.34 103,-169 103,-169 103,-169 182.15,-169 182.15,-169"/>
<polygon fill="black" stroke="black" points="182.15,-172.5 192.15,-169 182.15,-165.5 182.15,-172.5"/>
</g>
</g>
</svg>
