<?xml version="1.0" encoding="UTF-8" standalone="no"?>
<!DOCTYPE svg PUBLIC "-//W3C//DTD SVG 1.1//EN"
 "http://www.w3.org/Graphics/SVG/1.1/DTD/svg11.dtd">
<!-- Generated by graphviz version 2.47.0 (20210316.0004)
 -->
<!-- Title: dependencies Pages: 1 -->
<svg width="504pt" height="211pt"
 viewBox="0.00 0.00 504.00 211.00" xmlns="http://www.w3.org/2000/svg" xmlns:xlink="http://www.w3.org/1999/xlink">
<g id="graph0" class="graph" transform="scale(1 1) rotate(0) translate(4 207)">
<title>dependencies</title>
<polygon fill="white" stroke="transparent" points="-4,4 -4,-207 500,-207 500,4 -4,4"/>
<text text-anchor="start" x="227.01" y="-42.4" font-family="Times-12" font-weight="bold" font-size="14.00">Legend</text>
<polygon fill="#ffffb3" stroke="transparent" points="14,-10 14,-30 34,-30 34,-10 14,-10"/>
<text text-anchor="start" x="37.63" y="-15.4" font-family="Times-12" font-size="14.00"> &#160;Declarations</text>
<polygon fill="#8dd3c7" stroke="transparent" points="127,-10 127,-30 147,-30 147,-10 127,-10"/>
<text text-anchor="start" x="150.73" y="-15.4" font-family="Times-12" font-size="14.00"> &#160;Module</text>
<polygon fill="#80b1d3" stroke="transparent" points="213,-10 213,-30 233,-30 233,-10 213,-10"/>
<text text-anchor="start" x="236.78" y="-15.4" font-family="Times-12" font-size="14.00"> &#160;Bootstrap</text>
<polygon fill="#fdb462" stroke="transparent" points="310,-10 310,-30 330,-30 330,-10 310,-10"/>
<text text-anchor="start" x="333.67" y="-15.4" font-family="Times-12" font-size="14.00"> &#160;Providers</text>
<polygon fill="#fb8072" stroke="transparent" points="406,-10 406,-30 426,-30 426,-10 406,-10"/>
<text text-anchor="start" x="429.73" y="-15.4" font-family="Times-12" font-size="14.00"> &#160;Exports</text>
<g id="clust1" class="cluster">
<title>cluster_MessagesPageModule</title>
<polygon fill="none" stroke="black" stroke-dasharray="1,5" points="20,-70 20,-195 476,-195 476,-70 20,-70"/>
</g>
<g id="clust4" class="cluster">
<title>cluster_MessagesPageModule_imports</title>
<polygon fill="none" stroke="black" points="150,-78 150,-130 468,-130 468,-78 150,-78"/>
</g>
<g id="clust2" class="cluster">
<title>cluster_MessagesPageModule_declarations</title>
<polygon fill="none" stroke="black" points="28,-78 28,-130 142,-130 142,-78 28,-78"/>
</g>
<!-- MessagesPage -->
<g id="node1" class="node">
<title>MessagesPage</title>
<polygon fill="#ffffb3" stroke="black" points="133.63,-122 36.37,-122 36.37,-86 133.63,-86 133.63,-122"/>
<text text-anchor="middle" x="85" y="-99.8" font-family="Times,serif" font-size="14.00">MessagesPage</text>
</g>
<!-- MessagesPageModule -->
<g id="node2" class="node">
<title>MessagesPageModule</title>
<polygon fill="#8dd3c7" stroke="black" points="277.68,-187 274.68,-191 253.68,-191 250.68,-187 136.32,-187 136.32,-151 277.68,-151 277.68,-187"/>
<text text-anchor="middle" x="207" y="-164.8" font-family="Times,serif" font-size="14.00">MessagesPageModule</text>
</g>
<!-- MessagesPage&#45;&gt;MessagesPageModule -->
<g id="edge1" class="edge">
<title>MessagesPage&#45;&gt;MessagesPageModule</title>
<path fill="none" stroke="black" d="M133.93,-104C141.63,-104 147.1,-104 147.1,-104 147.1,-104 147.1,-140.89 147.1,-140.89"/>
<polygon fill="black" stroke="black" points="143.6,-140.89 147.1,-150.89 150.6,-140.89 143.6,-140.89"/>
</g>
<!-- MessagesPageRoutingModule -->
<g id="node3" class="node">
<title>MessagesPageRoutingModule</title>
<polygon fill="#8dd3c7" stroke="black" points="460.3,-122 457.3,-126 436.3,-126 433.3,-122 273.7,-122 273.7,-86 460.3,-86 460.3,-122"/>
<text text-anchor="middle" x="367" y="-99.8" font-family="Times,serif" font-size="14.00">MessagesPageRoutingModule</text>
</g>
<!-- MessagesPageRoutingModule&#45;&gt;MessagesPageModule -->
<g id="edge2" class="edge">
<title>MessagesPageRoutingModule&#45;&gt;MessagesPageModule</title>
<path fill="none" stroke="black" d="M273.72,-104C268.32,-104 265.03,-104 265.03,-104 265.03,-104 265.03,-140.89 265.03,-140.89"/>
<polygon fill="black" stroke="black" points="261.53,-140.89 265.03,-150.89 268.53,-140.89 261.53,-140.89"/>
</g>
<!-- SharedModule -->
<g id="node4" class="node">
<title>SharedModule</title>
<polygon fill="#8dd3c7" stroke="black" points="256.42,-122 253.42,-126 232.42,-126 229.42,-122 157.58,-122 157.58,-86 256.42,-86 256.42,-122"/>
<text text-anchor="middle" x="207" y="-99.8" font-family="Times,serif" font-size="14.00">SharedModule</text>
</g>
<!-- SharedModule&#45;&gt;MessagesPageModule -->
<g id="edge3" class="edge">
<title>SharedModule&#45;&gt;MessagesPageModule</title>
<path fill="none" stroke="black" d="M207,-122.11C207,-122.11 207,-140.99 207,-140.99"/>
<polygon fill="black" stroke="black" points="203.5,-140.99 207,-150.99 210.5,-140.99 203.5,-140.99"/>
</g>
</g>
</svg>
