<?xml version="1.0" encoding="UTF-8" standalone="no"?>
<!DOCTYPE svg PUBLIC "-//W3C//DTD SVG 1.1//EN"
 "http://www.w3.org/Graphics/SVG/1.1/DTD/svg11.dtd">
<!-- Generated by graphviz version 2.47.0 (20210316.0004)
 -->
<!-- Title: dependencies Pages: 1 -->
<svg width="504pt" height="211pt"
 viewBox="0.00 0.00 504.00 211.00" xmlns="http://www.w3.org/2000/svg" xmlns:xlink="http://www.w3.org/1999/xlink">
<g id="graph0" class="graph" transform="scale(1 1) rotate(0) translate(4 207)">
<title>dependencies</title>
<polygon fill="white" stroke="transparent" points="-4,4 -4,-207 500,-207 500,4 -4,4"/>
<text text-anchor="start" x="227.01" y="-42.4" font-family="Times-12" font-weight="bold" font-size="14.00">Legend</text>
<polygon fill="#ffffb3" stroke="transparent" points="14,-10 14,-30 34,-30 34,-10 14,-10"/>
<text text-anchor="start" x="37.63" y="-15.4" font-family="Times-12" font-size="14.00"> &#160;Declarations</text>
<polygon fill="#8dd3c7" stroke="transparent" points="127,-10 127,-30 147,-30 147,-10 127,-10"/>
<text text-anchor="start" x="150.73" y="-15.4" font-family="Times-12" font-size="14.00"> &#160;Module</text>
<polygon fill="#80b1d3" stroke="transparent" points="213,-10 213,-30 233,-30 233,-10 213,-10"/>
<text text-anchor="start" x="236.78" y="-15.4" font-family="Times-12" font-size="14.00"> &#160;Bootstrap</text>
<polygon fill="#fdb462" stroke="transparent" points="310,-10 310,-30 330,-30 330,-10 310,-10"/>
<text text-anchor="start" x="333.67" y="-15.4" font-family="Times-12" font-size="14.00"> &#160;Providers</text>
<polygon fill="#fb8072" stroke="transparent" points="406,-10 406,-30 426,-30 426,-10 406,-10"/>
<text text-anchor="start" x="429.73" y="-15.4" font-family="Times-12" font-size="14.00"> &#160;Exports</text>
<g id="clust1" class="cluster">
<title>cluster_TermsAndConditionsPageModule</title>
<polygon fill="none" stroke="black" stroke-dasharray="1,5" points="11,-70 11,-195 485,-195 485,-70 11,-70"/>
</g>
<g id="clust2" class="cluster">
<title>cluster_TermsAndConditionsPageModule_declarations</title>
<polygon fill="none" stroke="black" points="297,-78 297,-130 477,-130 477,-78 297,-78"/>
</g>
<g id="clust4" class="cluster">
<title>cluster_TermsAndConditionsPageModule_imports</title>
<polygon fill="none" stroke="black" points="19,-78 19,-130 289,-130 289,-78 19,-78"/>
</g>
<!-- TermsAndConditionsPage -->
<g id="node1" class="node">
<title>TermsAndConditionsPage</title>
<polygon fill="#ffffb3" stroke="black" points="469.04,-122 304.96,-122 304.96,-86 469.04,-86 469.04,-122"/>
<text text-anchor="middle" x="387" y="-99.8" font-family="Times,serif" font-size="14.00">TermsAndConditionsPage</text>
</g>
<!-- TermsAndConditionsPageModule -->
<g id="node2" class="node">
<title>TermsAndConditionsPageModule</title>
<polygon fill="#8dd3c7" stroke="black" points="367.08,-187 364.08,-191 343.08,-191 340.08,-187 158.92,-187 158.92,-151 367.08,-151 367.08,-187"/>
<text text-anchor="middle" x="263" y="-164.8" font-family="Times,serif" font-size="14.00">TermsAndConditionsPageModule</text>
</g>
<!-- TermsAndConditionsPage&#45;&gt;TermsAndConditionsPageModule -->
<g id="edge1" class="edge">
<title>TermsAndConditionsPage&#45;&gt;TermsAndConditionsPageModule</title>
<path fill="none" stroke="black" d="M335.89,-122.11C335.89,-122.11 335.89,-140.99 335.89,-140.99"/>
<polygon fill="black" stroke="black" points="332.39,-140.99 335.89,-150.99 339.39,-140.99 332.39,-140.99"/>
</g>
<!-- TermsAndConditionsPageRoutingModule -->
<g id="node3" class="node">
<title>TermsAndConditionsPageRoutingModule</title>
<polygon fill="#8dd3c7" stroke="black" points="280.7,-122 277.7,-126 256.7,-126 253.7,-122 27.3,-122 27.3,-86 280.7,-86 280.7,-122"/>
<text text-anchor="middle" x="154" y="-99.8" font-family="Times,serif" font-size="14.00">TermsAndConditionsPageRoutingModule</text>
</g>
<!-- TermsAndConditionsPageRoutingModule&#45;&gt;TermsAndConditionsPageModule -->
<g id="edge2" class="edge">
<title>TermsAndConditionsPageRoutingModule&#45;&gt;TermsAndConditionsPageModule</title>
<path fill="none" stroke="black" d="M219.78,-122.11C219.78,-122.11 219.78,-140.99 219.78,-140.99"/>
<polygon fill="black" stroke="black" points="216.28,-140.99 219.78,-150.99 223.28,-140.99 216.28,-140.99"/>
</g>
</g>
</svg>
