<svg width="336" height="60" viewBox="0 0 336 60" fill="none" xmlns="http://www.w3.org/2000/svg">
<path d="M100.327 42.9681C96.5689 46.4861 92.2631 48.2329 87.4098 48.2329C82.2329 48.2329 77.8276 46.4618 74.1938 42.8953C70.56 39.353 68.7183 35.0586 68.7183 30.0121C68.7183 24.9656 70.5351 20.6955 74.1938 17.129C77.8525 13.5625 82.2329 11.7671 87.4098 11.7671C92.2383 11.7671 96.8178 13.6838 101.148 17.5415L97.6143 20.6955C94.3538 17.8811 90.944 16.4497 87.4098 16.4497C83.5769 16.4497 80.3165 17.7841 77.5787 20.4286C74.8658 23.0732 73.4969 26.2758 73.4969 30.0121C73.4969 33.7485 74.8658 36.9753 77.5787 39.6199C80.2916 42.2645 83.5769 43.5989 87.4098 43.5989C90.6951 43.5989 93.4329 42.7497 95.5983 41.0514V30.279H100.327V42.9681Z" fill="white"/>
<path d="M110.109 12.0825V41.0028H106.251V12.0825H110.109Z" fill="white"/>
<path d="M121.582 36.7812C122.229 37.3393 123.399 37.6062 125.091 37.6062C126.908 37.6062 128.476 36.9753 129.771 35.738C129.92 35.5681 130.268 35.2042 130.741 34.6219L134.574 35.9563C133.628 37.218 132.956 38.0671 132.533 38.4553C130.467 40.4691 127.979 41.4638 125.067 41.4638C122.155 41.4638 119.691 40.4691 117.625 38.4553C115.559 36.4416 114.539 34.0154 114.539 31.1767C114.539 28.3381 115.559 25.9119 117.625 23.8981C119.691 21.8844 122.179 20.8896 125.067 20.8896C127.555 20.8896 129.746 21.6175 131.612 23.0975C131.911 23.3401 132.235 23.6312 132.533 23.8981C132.658 24.0194 133.006 24.4076 133.579 25.0384L131.662 26.9309L121.557 36.7812H121.582ZM128.003 25.2325C127.58 24.9171 126.61 24.7473 125.091 24.7473C123.275 24.7473 121.731 25.3781 120.437 26.6397C119.143 27.9013 118.496 29.4299 118.496 31.201C118.496 32.6567 118.67 33.6029 118.994 34.0396L128.003 25.2325Z" fill="white"/>
<path d="M139.029 22.4181H142.862V24.1407C143.609 22.3211 145.027 21.4234 147.143 21.4234C149.259 21.4234 150.428 22.4666 150.677 24.5289C151.275 22.4666 152.942 21.4234 155.68 21.4234C158.418 21.4234 159.712 23.0247 159.712 26.203V41.0028H155.854V27.9256C155.854 26.1059 155.083 25.184 153.564 25.184C152.942 25.184 152.395 25.4023 151.922 25.8391C151.449 26.2758 151.225 27.7315 151.225 30.2062V41.0028H147.392V27.9256C147.392 26.1059 146.645 25.184 145.102 25.184C144.48 25.184 143.932 25.4023 143.459 25.8391C143.061 26.203 142.837 27.1977 142.787 28.799V41.0028H138.955V22.4181H139.029Z" fill="white"/>
<path d="M165.312 22.4181H169.145V24.1407C169.892 22.3211 171.31 21.4234 173.426 21.4234C175.541 21.4234 176.711 22.4666 176.96 24.5289C177.557 22.4666 179.225 21.4234 181.963 21.4234C184.7 21.4234 185.995 23.0247 185.995 26.203V41.0028H182.137V27.9256C182.137 26.1059 181.365 25.184 179.847 25.184C179.225 25.184 178.677 25.4023 178.204 25.8391C177.732 26.2758 177.508 27.7315 177.508 30.2062V41.0028H173.675V27.9256C173.675 26.1059 172.928 25.184 171.385 25.184C170.763 25.184 170.215 25.4023 169.742 25.8391C169.344 26.203 169.12 27.1977 169.07 28.799V41.0028H165.237V22.4181H165.312Z" fill="white"/>
<path d="M197.518 36.7812C198.165 37.3393 199.335 37.6062 201.027 37.6062C202.844 37.6062 204.412 36.9753 205.707 35.738C205.856 35.5681 206.204 35.2042 206.677 34.6219L210.51 35.9563C209.564 37.218 208.892 38.0671 208.469 38.4553C206.404 40.4691 203.915 41.4638 201.003 41.4638C198.091 41.4638 195.627 40.4691 193.561 38.4553C191.495 36.4416 190.475 34.0154 190.475 31.1767C190.475 28.3381 191.495 25.9119 193.561 23.8981C195.627 21.8844 198.116 20.8896 201.003 20.8896C203.492 20.8896 205.682 21.6175 207.548 23.0975C207.847 23.3401 208.171 23.6312 208.469 23.8981C208.594 24.0194 208.942 24.4076 209.515 25.0384L207.598 26.9309L197.493 36.7812H197.518ZM203.94 25.2325C203.516 24.9171 202.546 24.7473 201.027 24.7473C199.211 24.7473 197.668 25.3781 196.373 26.6397C195.079 27.9013 194.432 29.4299 194.432 31.201C194.432 32.6567 194.606 33.6029 194.93 34.0396L203.94 25.2325Z" fill="white"/>
<path d="M226.738 22.4181L221.561 28.6292L228.754 41.0028H224.174L218.997 31.7347L218.823 31.9288V41.0028H214.965V15.4307H218.823V25.9361L221.785 22.3939H226.738V22.4181Z" fill="white"/>
<path d="M248.316 23.704V22.3939H252.174V41.0028H248.316V38.6737C246.475 40.5419 244.309 41.4638 241.87 41.4638C238.958 41.4638 236.469 40.4691 234.404 38.4553C232.338 36.4416 231.317 34.0396 231.317 31.1767C231.317 28.3138 232.338 25.9119 234.404 23.8981C236.469 21.8844 238.933 20.8896 241.87 20.8896C244.309 20.8896 246.475 21.8116 248.316 23.6798V23.704ZM248.316 32.5839V29.8423C248.092 28.6777 247.495 27.6102 246.549 26.664C245.255 25.4024 243.687 24.7958 241.87 24.7958C240.053 24.7958 238.485 25.4266 237.191 26.664C235.897 27.9256 235.25 29.4299 235.25 31.2252C235.25 33.0206 235.897 34.5006 237.191 35.7622C238.485 37.0239 240.053 37.6547 241.87 37.6547C243.687 37.6547 245.23 37.0239 246.549 35.7865C247.52 34.8403 248.117 33.7728 248.316 32.6082V32.5839Z" fill="white"/>
<path d="M261.607 36.9996C262.055 37.4363 262.603 37.6547 263.25 37.6547C263.897 37.6547 264.419 37.4363 264.867 36.9996C265.315 36.5629 265.539 36.0291 265.539 35.3983C265.539 34.7675 265.315 34.258 264.867 33.8213C264.569 33.5301 263.897 33.0449 262.876 32.4383C261.483 31.7105 260.512 31.0554 259.939 30.4974C258.919 29.5026 258.421 28.3138 258.421 26.9309C258.421 25.5479 258.919 24.3348 259.939 23.3401C260.96 22.3453 262.179 21.8601 263.598 21.8601C265.017 21.8601 266.211 22.3211 267.182 23.2673C267.854 23.9224 268.302 24.6745 268.476 25.4994L264.743 26.5427C264.668 26.2515 264.569 26.0332 264.494 25.9361C264.27 25.7178 263.971 25.6207 263.598 25.6207C263.225 25.6207 262.901 25.742 262.652 26.0089C262.379 26.2758 262.254 26.5669 262.254 26.9309C262.254 27.2948 262.379 27.6102 262.652 27.8528C262.876 28.0712 263.424 28.4351 264.245 28.9446C265.788 29.7695 266.883 30.5216 267.58 31.1767C268.775 32.3656 269.372 33.7485 269.372 35.374C269.372 36.9996 268.775 38.4553 267.58 39.6199C266.386 40.7845 264.942 41.391 263.225 41.391C261.507 41.391 260.089 40.8087 258.894 39.6199C258.073 38.8193 257.525 37.8002 257.251 36.6114L261.059 35.8108C261.159 36.3688 261.333 36.757 261.582 36.9753L261.607 36.9996Z" fill="white"/>
<path d="M277.959 36.9996C278.407 37.4363 278.955 37.6547 279.602 37.6547C280.249 37.6547 280.772 37.4363 281.22 36.9996C281.668 36.5629 281.892 36.0291 281.892 35.3983C281.892 34.7675 281.668 34.258 281.22 33.8213C280.921 33.5301 280.249 33.0449 279.228 32.4383C277.835 31.7105 276.864 31.0554 276.292 30.4974C275.271 29.5026 274.773 28.3138 274.773 26.9309C274.773 25.5479 275.271 24.3348 276.292 23.3401C277.312 22.3453 278.532 21.8601 279.95 21.8601C281.369 21.8601 282.564 22.3211 283.534 23.2673C284.206 23.9224 284.654 24.6745 284.828 25.4994L281.095 26.5427C281.02 26.2515 280.921 26.0332 280.846 25.9361C280.622 25.7178 280.324 25.6207 279.95 25.6207C279.577 25.6207 279.253 25.742 279.004 26.0089C278.731 26.2758 278.606 26.5669 278.606 26.9309C278.606 27.2948 278.731 27.6102 279.004 27.8528C279.228 28.0712 279.776 28.4351 280.597 28.9446C282.14 29.7695 283.236 30.5216 283.932 31.1767C285.127 32.3656 285.724 33.7485 285.724 35.374C285.724 36.9996 285.127 38.4553 283.932 39.6199C282.738 40.7845 281.294 41.391 279.577 41.391C277.86 41.391 276.441 40.8087 275.246 39.6199C274.425 38.8193 273.877 37.8002 273.604 36.6114L277.412 35.8108C277.511 36.3688 277.685 36.757 277.934 36.9753L277.959 36.9996Z" fill="white"/>
<path d="M296.352 36.7812C296.999 37.3393 298.169 37.6062 299.861 37.6062C301.678 37.6062 303.246 36.9753 304.54 35.738C304.69 35.5681 305.038 35.2042 305.511 34.6219L309.344 35.9563C308.398 37.218 307.726 38.0671 307.303 38.4553C305.237 40.4691 302.748 41.4638 299.836 41.4638C296.924 41.4638 294.46 40.4691 292.395 38.4553C290.329 36.4416 289.308 34.0154 289.308 31.1767C289.308 28.3381 290.329 25.9119 292.395 23.8981C294.46 21.8844 296.949 20.8896 299.836 20.8896C302.325 20.8896 304.515 21.6175 306.382 23.0975C306.681 23.3401 307.004 23.6312 307.303 23.8981C307.427 24.0194 307.776 24.4076 308.348 25.0384L306.432 26.9309L296.327 36.7812H296.352ZM302.773 25.2325C302.35 24.9171 301.379 24.7473 299.861 24.7473C298.044 24.7473 296.501 25.3781 295.207 26.6397C293.913 27.9013 293.266 29.4299 293.266 31.201C293.266 32.6567 293.44 33.6029 293.763 34.0396L302.773 25.2325Z" fill="white"/>
<path d="M319.374 27.222V40.833H315.517V22.2483H319.374V24.4076C320.171 22.2968 321.789 21.2293 324.203 21.2293C326.269 21.2293 327.911 21.9329 329.131 23.3643C330.35 24.7958 330.973 26.5912 331.022 28.7262V40.8087H327.19V28.8718C327.19 27.8043 326.791 26.8823 325.995 26.1059C325.198 25.3296 324.228 24.9656 323.133 24.9656C322.038 24.9656 321.092 25.3296 320.27 26.0817C319.822 26.5184 319.549 26.9066 319.399 27.1977L319.374 27.222Z" fill="white"/>
<path d="M331.022 45.831H105.952V48.0388H331.022V45.831Z" fill="white"/>
<path d="M30.7627 55.1233C45.0033 55.1233 56.5476 43.8698 56.5476 29.9879C56.5476 16.1059 45.0033 4.8524 30.7627 4.8524C16.5221 4.8524 4.97778 16.1059 4.97778 29.9879C4.97778 43.8698 16.5221 55.1233 30.7627 55.1233Z" fill="white"/>
<path d="M47.5628 20.3801C47.5628 20.3801 47.4881 20.3801 47.4633 20.3558C45.497 19.9191 43.5059 19.4824 41.5397 19.0457C39.6481 18.6332 37.5575 17.8811 35.6161 17.8083C33.8739 17.7355 33.7246 19.1913 32.953 20.3801C32.0819 21.7388 31.1361 23.0004 30.3397 24.4076C29.5433 23.0732 28.7717 21.7388 27.9753 20.4044C27.353 19.3368 26.8801 17.7598 25.3868 17.8326C23.7193 17.9296 21.9521 18.4634 20.3593 18.8759C19.5877 19.07 18.841 19.3126 18.0695 19.4096C17.1984 19.5067 16.4268 19.5067 15.5806 19.7493C14.585 20.0404 14.3859 21.7388 15.5806 21.9086C18.0695 22.2725 20.5335 22.9761 22.9228 23.704C24.0926 24.0679 24.7895 24.5289 25.5361 25.4266C25.9841 25.9604 26.4073 26.4941 26.9548 26.9066C27.0295 27.0036 27.129 27.125 27.2784 27.1977C28.6473 28.0226 29.5681 29.5512 30.5139 30.8128C30.5139 30.8613 30.489 30.8856 30.4641 30.9341C30.265 31.9288 30.4144 33.0206 30.3895 34.0154C30.3895 35.3255 30.3895 36.6114 30.3895 37.9216C30.3895 40.3478 30.4393 42.7497 30.489 45.1759C30.489 46.0251 31.4597 46.5831 32.2064 46.1464C34.073 45.0789 36.1139 44.3267 38.1548 43.6717C39.1504 43.3563 40.1708 43.2107 41.2161 43.0651C41.9379 42.9681 42.809 42.9681 43.4561 42.6041C44.8499 41.8277 44.3521 39.6442 44.3521 38.334C44.3521 36.1504 44.3521 33.9911 44.3521 31.8075C44.3521 30.7157 44.3521 29.6239 44.3521 28.5564C44.3521 27.9499 44.4019 27.3433 43.9539 26.8581C43.929 26.8338 43.9041 26.8095 43.8793 26.7853C45.3477 25.1597 46.9655 23.6555 48.6828 22.2725C49.6784 21.4719 48.5833 20.2103 47.5379 20.4286L47.5628 20.3801Z" fill="#7A6B52"/>
<path d="M33.1522 24.8928C32.4304 24.6502 31.6588 24.6987 30.9122 24.626C30.3895 24.5289 29.8917 24.4319 29.3442 24.5774C28.9459 24.6745 28.6224 24.8928 28.249 25.0869C27.6019 25.0142 26.8304 25.4023 26.7308 26.0574C26.681 26.3486 26.6313 26.5912 26.7308 26.9066C26.8055 27.1735 26.9548 27.4161 27.1539 27.6102C27.2535 27.7072 27.353 27.78 27.4526 27.8528C27.4775 27.8771 27.5522 27.9256 27.577 27.9741C27.7264 28.0954 27.8508 28.241 28.0002 28.3866C28.0002 28.3866 28.025 28.4108 28.0499 28.4351C28.0997 28.5079 28.1495 28.5807 28.1993 28.6535C28.4233 28.9931 28.7966 29.2357 29.1948 29.3085C29.369 29.5512 29.6179 29.721 29.9166 29.7938C30.4144 29.9393 30.8873 29.7695 31.2606 29.4541C31.6837 29.1144 32.0819 28.7262 32.4304 28.3381C32.6046 28.144 32.7788 27.9499 32.953 27.7315C33.0277 27.6587 33.0775 27.5617 33.1522 27.4889C33.3762 27.4161 33.6002 27.2948 33.7495 27.1492C33.9486 26.9309 34.0979 26.664 34.1228 26.3728C34.2224 25.6692 33.7744 25.1112 33.1273 24.8928H33.1522Z" fill="#59482C"/>
<path d="M30.5637 34.2822C30.5637 33.3118 30.7628 32.0501 30.3397 31.1524C30.1904 30.837 29.9913 30.6187 29.7673 30.4246C29.7175 30.2305 29.6179 30.0121 29.4686 29.7938C28.1744 27.9499 26.3824 26.2758 24.7397 24.723C23.8188 23.8738 22.6491 23.7283 21.4793 23.4371C20.0855 23.0732 18.7166 22.6122 17.3477 22.127C17.2482 22.1027 17.1486 22.0784 17.0491 22.0542C16.8251 21.8844 16.6011 21.7145 16.4019 21.5447C16.0037 21.2293 15.6304 21.0109 15.0828 21.0109C15.0331 21.0109 15.0082 21.0109 14.9584 21.0109C14.9335 21.0109 14.8837 20.9867 14.8588 20.9867C14.4357 20.9139 14.3859 20.8896 14.0126 20.6713C13.6144 20.4286 13.1913 20.2345 12.7184 20.2345C11.9219 20.2103 11.4988 20.9624 11.6233 21.6417C11.7228 22.1755 12.2704 22.5394 12.6686 22.8791C12.8926 23.0732 13.1166 23.2673 13.3406 23.4614C13.4153 23.704 13.5646 23.9466 13.7637 24.0922C14.1619 24.3833 14.5353 24.6745 14.9086 24.9899C15.0579 25.1112 15.2322 25.2325 15.3815 25.3053C15.6553 25.8633 16.0784 26.3728 16.5513 26.8581C16.1531 27.1492 15.8793 27.6102 15.9539 28.2167C16.2028 30.5216 16.2526 32.8265 16.2526 35.1314C16.2526 36.296 16.2277 37.4363 16.2028 38.6009C16.2028 39.5228 16.0037 40.5904 16.3273 41.4638C17.0739 43.4776 19.9859 43.1379 21.7531 43.6231C23.7193 44.1569 25.3619 45.2487 27.4028 45.467C28.4233 46.4133 30.5886 45.9765 30.5886 44.2054C30.5886 41.9976 30.5886 39.7897 30.5886 37.5819C30.5886 36.4658 30.5886 35.374 30.5886 34.258L30.5637 34.2822Z" fill="#A08355"/>
<path d="M51.1219 19.5552C50.9725 19.3126 50.649 19.1913 50.3752 19.2883L48.0605 19.9919L34.5708 16.9592C34.297 16.8864 33.9983 17.0077 33.849 17.2503L30.3148 23.1945L26.7805 17.2503C26.6312 17.0077 26.3574 16.8864 26.0588 16.9592L12.6188 19.9919L10.3041 19.2883C10.0303 19.2155 9.70676 19.3126 9.55743 19.5552C9.40809 19.7978 9.43298 20.1132 9.63209 20.3316L15.5556 26.5184V42.1674C15.5556 42.4586 15.7548 42.7012 16.0285 42.774L30.1654 47.0198C30.1903 47.0198 30.2152 47.0198 30.2401 47.0198C30.265 47.0198 30.3148 47.0198 30.3396 47.0198C30.3645 47.0198 30.4143 47.0198 30.4392 47.0198C30.4641 47.0198 30.489 47.0198 30.5139 47.0198L44.6508 42.774C44.9245 42.7012 45.1236 42.4343 45.1236 42.1674V26.4699L50.9974 20.3316C51.1965 20.1132 51.2214 19.7978 51.0721 19.5552H51.1219ZM34.7699 18.2936L45.5965 20.7198L36.2383 23.5342C36.2383 23.5342 36.0392 23.6312 35.9645 23.704L34.7948 24.9414L31.3352 24.0922L34.7948 18.2936H34.7699ZM30.3894 25.1597L33.7494 26.0089L30.3645 29.5512L27.1041 26.1302L30.4143 25.1597H30.3894ZM25.9094 18.2936L29.3939 24.1165L26.0836 25.0869L24.7645 23.704C24.7645 23.704 24.5903 23.5584 24.4908 23.5342L15.1574 20.7198L25.9343 18.2693L25.9094 18.2936ZM12.2703 21.205L23.9183 24.6988L25.4116 26.2515L28.1992 29.163L16.5512 25.6692L12.2454 21.1808L12.2703 21.205ZM29.7174 45.5641L16.8748 41.7064V27.125L29.7174 30.9826V45.5641ZM43.8543 41.7064L31.0116 45.5641V30.9826L43.8543 27.125V41.7064ZM44.0783 25.7178L32.4303 29.2115L35.417 26.0817C35.417 26.0817 35.4419 26.0574 35.4668 26.0332L36.761 24.6745L48.185 21.2535L48.3343 21.205H48.3592L44.0285 25.7178H44.0783Z" fill="#333333"/>
<path d="M34.0979 25.645L33.9485 25.8148L33.7743 26.0089L33.6747 26.1302L33.177 26.664C31.3601 26.4214 30.4143 27.319 30.1156 27.6587C29.5432 27.6587 29.0952 27.7315 28.7219 27.8286L27.129 26.1545L26.1334 25.1112L26.0339 25.0142L25.785 24.7715L25.4365 24.4076C26.0339 24.4076 26.5565 24.5289 27.0045 24.6502C27.2285 24.723 27.4276 24.7715 27.6019 24.8443C27.6516 24.8686 27.7014 24.8928 27.7512 24.8928C27.9503 24.9656 28.1245 25.0384 28.2241 25.0869C28.5476 24.9899 28.8463 24.9414 29.145 24.9656C30.041 25.0142 30.8125 25.4751 31.0863 25.6935C32.2312 25.3538 33.3014 25.4509 34.1476 25.645H34.0979Z" fill="#283F5D"/>
<path d="M37.01 23.2916L36.562 23.4371L36.2384 23.5342C36.2384 23.5342 36.1388 23.5584 36.114 23.5827C36.0642 23.607 36.0144 23.6555 35.9646 23.704L34.7948 24.9414L34.1228 25.645C33.3015 25.4509 32.2064 25.3296 31.0615 25.6935C30.7628 25.4751 30.0162 24.9899 29.1202 24.9656C28.8215 24.9656 28.5228 24.9899 28.1993 25.0869C28.0997 25.0384 27.9504 24.9656 27.7264 24.8928C27.6766 24.8928 27.6268 24.8686 27.5771 24.8443C27.4028 24.7958 27.2037 24.723 26.9797 24.6502C27.2784 24.4804 28.0997 24.0194 29.17 23.7768C29.8917 23.607 30.6882 23.5342 31.5095 23.7283C31.6588 23.6312 31.9077 23.5099 32.2313 23.3886C33.2268 23.0004 34.9691 22.588 36.9851 23.3643L37.01 23.2916Z" fill="#1F3047"/>
<path d="M33.1272 26.6397L32.8783 26.9066L32.7041 27.0764L32.6294 27.1492L30.3397 29.5269L29.1201 28.2653L28.8712 27.9984L28.7717 27.8771L28.6472 27.7558C29.0206 27.6587 29.4934 27.6102 30.041 27.5859C30.3397 27.2463 31.2854 26.3728 33.1023 26.5912L33.1272 26.6397Z" fill="#375781"/>
<path d="M49.3298 19.8949C49.2303 19.4096 52.9885 16.8378 51.9432 14.7756C50.8978 12.7133 43.5556 10.1658 40.9423 9.65629C38.3289 9.14679 32.5547 8.63728 30.4641 8.63728C27.8507 8.63728 22.0765 9.65629 19.9858 10.1658C17.8952 10.6753 10.0303 13.7323 9.5076 15.7946C9.0596 17.59 11.5983 19.8706 11.5983 19.8949L16.0534 21.2535L23.6196 23.5342L24.8392 23.8981C24.8392 23.8981 25.0383 23.9951 25.1129 24.0679L26.2329 25.2325L27.4774 26.5427L30.3645 29.5754L33.0774 26.7368L34.7449 24.9899L35.6161 24.0922C35.6161 24.0922 35.7903 23.9709 35.8898 23.9224L37.3085 23.4856L44.7005 21.2778L49.3547 19.9191L49.3298 19.8949Z" fill="url(#paint0_radial_13_78)"/>
<defs>
<radialGradient id="paint0_radial_13_78" cx="0" cy="0" r="1" gradientUnits="userSpaceOnUse" gradientTransform="translate(30.187 22.5627) rotate(-89.4666) scale(7.39993 18.8259)">
<stop offset="0.2" stop-color="white" stop-opacity="0.7"/>
<stop offset="0.6" stop-color="#FEEB1E" stop-opacity="0.8"/>
<stop offset="1" stop-color="#FF931E" stop-opacity="0"/>
</radialGradient>
</defs>
</svg>
