<?xml version="1.0" encoding="UTF-8" standalone="no"?>
<!DOCTYPE svg PUBLIC "-//W3C//DTD SVG 1.1//EN"
 "http://www.w3.org/Graphics/SVG/1.1/DTD/svg11.dtd">
<!-- Generated by graphviz version 2.47.0 (20210316.0004)
 -->
<!-- Title: dependencies Pages: 1 -->
<svg width="1541pt" height="284pt"
 viewBox="0.00 0.00 1541.00 284.00" xmlns="http://www.w3.org/2000/svg" xmlns:xlink="http://www.w3.org/1999/xlink">
<g id="graph0" class="graph" transform="scale(1 1) rotate(0) translate(4 280)">
<title>dependencies</title>
<polygon fill="white" stroke="transparent" points="-4,4 -4,-280 1537,-280 1537,4 -4,4"/>
<text text-anchor="start" x="745.51" y="-42.4" font-family="Times-12" font-weight="bold" font-size="14.00">Legend</text>
<polygon fill="#ffffb3" stroke="transparent" points="532.5,-10 532.5,-30 552.5,-30 552.5,-10 532.5,-10"/>
<text text-anchor="start" x="556.13" y="-15.4" font-family="Times-12" font-size="14.00"> &#160;Declarations</text>
<polygon fill="#8dd3c7" stroke="transparent" points="645.5,-10 645.5,-30 665.5,-30 665.5,-10 645.5,-10"/>
<text text-anchor="start" x="669.23" y="-15.4" font-family="Times-12" font-size="14.00"> &#160;Module</text>
<polygon fill="#80b1d3" stroke="transparent" points="731.5,-10 731.5,-30 751.5,-30 751.5,-10 731.5,-10"/>
<text text-anchor="start" x="755.28" y="-15.4" font-family="Times-12" font-size="14.00"> &#160;Bootstrap</text>
<polygon fill="#fdb462" stroke="transparent" points="828.5,-10 828.5,-30 848.5,-30 848.5,-10 828.5,-10"/>
<text text-anchor="start" x="852.17" y="-15.4" font-family="Times-12" font-size="14.00"> &#160;Providers</text>
<polygon fill="#fb8072" stroke="transparent" points="924.5,-10 924.5,-30 944.5,-30 944.5,-10 924.5,-10"/>
<text text-anchor="start" x="948.23" y="-15.4" font-family="Times-12" font-size="14.00"> &#160;Exports</text>
<g id="clust1" class="cluster">
<title>cluster_SharedModule</title>
<polygon fill="none" stroke="black" stroke-dasharray="1,5" points="8,-70 8,-268 1525,-268 1525,-70 8,-70"/>
</g>
<g id="clust2" class="cluster">
<title>cluster_SharedModule_declarations</title>
<polygon fill="none" stroke="black" points="31,-78 31,-130 1500,-130 1500,-78 31,-78"/>
</g>
<g id="clust13" class="cluster">
<title>cluster_SharedModule_exports</title>
<polygon fill="none" stroke="black" points="16,-208 16,-260 1517,-260 1517,-208 16,-208"/>
</g>
<!-- HeaderComponent -->
<g id="node1" class="node">
<title>HeaderComponent</title>
<polygon fill="#ffffb3" stroke="black" points="1491.74,-122 1370.26,-122 1370.26,-86 1491.74,-86 1491.74,-122"/>
<text text-anchor="middle" x="1431" y="-99.8" font-family="Times,serif" font-size="14.00">HeaderComponent</text>
</g>
<!-- SharedModule -->
<g id="node10" class="node">
<title>SharedModule</title>
<polygon fill="#8dd3c7" stroke="black" points="824.42,-187 821.42,-191 800.42,-191 797.42,-187 725.58,-187 725.58,-151 824.42,-151 824.42,-187"/>
<text text-anchor="middle" x="775" y="-164.8" font-family="Times,serif" font-size="14.00">SharedModule</text>
</g>
<!-- HeaderComponent&#45;&gt;SharedModule -->
<g id="edge1" class="edge">
<title>HeaderComponent&#45;&gt;SharedModule</title>
<path fill="none" stroke="black" d="M1376.75,-122.22C1376.75,-140.83 1376.75,-167 1376.75,-167 1376.75,-167 834.24,-167 834.24,-167"/>
<polygon fill="black" stroke="black" points="834.24,-163.5 824.24,-167 834.24,-170.5 834.24,-163.5"/>
</g>
<!-- HeaderPageSectionComponent -->
<g id="node2" class="node">
<title>HeaderPageSectionComponent</title>
<polygon fill="#ffffb3" stroke="black" points="1352.45,-122 1161.55,-122 1161.55,-86 1352.45,-86 1352.45,-122"/>
<text text-anchor="middle" x="1257" y="-99.8" font-family="Times,serif" font-size="14.00">HeaderPageSectionComponent</text>
</g>
<!-- HeaderPageSectionComponent&#45;&gt;SharedModule -->
<g id="edge2" class="edge">
<title>HeaderPageSectionComponent&#45;&gt;SharedModule</title>
<path fill="none" stroke="black" d="M1166.15,-122.02C1166.15,-139.37 1166.15,-163 1166.15,-163 1166.15,-163 834.54,-163 834.54,-163"/>
<polygon fill="black" stroke="black" points="834.54,-159.5 824.54,-163 834.54,-166.5 834.54,-159.5"/>
</g>
<!-- InfoModalComponent -->
<g id="node3" class="node">
<title>InfoModalComponent</title>
<polygon fill="#ffffb3" stroke="black" points="1143.7,-122 1002.3,-122 1002.3,-86 1143.7,-86 1143.7,-122"/>
<text text-anchor="middle" x="1073" y="-99.8" font-family="Times,serif" font-size="14.00">InfoModalComponent</text>
</g>
<!-- InfoModalComponent&#45;&gt;SharedModule -->
<g id="edge3" class="edge">
<title>InfoModalComponent&#45;&gt;SharedModule</title>
<path fill="none" stroke="black" d="M1098.28,-122.01C1098.28,-138.05 1098.28,-159 1098.28,-159 1098.28,-159 834.45,-159 834.45,-159"/>
<polygon fill="black" stroke="black" points="834.45,-155.5 824.45,-159 834.45,-162.5 834.45,-155.5"/>
</g>
<!-- ItemCardComponent -->
<g id="node4" class="node">
<title>ItemCardComponent</title>
<polygon fill="#ffffb3" stroke="black" points="984.2,-122 849.8,-122 849.8,-86 984.2,-86 984.2,-122"/>
<text text-anchor="middle" x="917" y="-99.8" font-family="Times,serif" font-size="14.00">ItemCardComponent</text>
</g>
<!-- ItemCardComponent&#45;&gt;SharedModule -->
<g id="edge4" class="edge">
<title>ItemCardComponent&#45;&gt;SharedModule</title>
<path fill="none" stroke="black" d="M940.12,-122.12C940.12,-136.78 940.12,-155 940.12,-155 940.12,-155 834.54,-155 834.54,-155"/>
<polygon fill="black" stroke="black" points="834.54,-151.5 824.54,-155 834.54,-158.5 834.54,-151.5"/>
</g>
<!-- LoginComponent -->
<g id="node5" class="node">
<title>LoginComponent</title>
<polygon fill="#ffffb3" stroke="black" points="832.28,-122 717.72,-122 717.72,-86 832.28,-86 832.28,-122"/>
<text text-anchor="middle" x="775" y="-99.8" font-family="Times,serif" font-size="14.00">LoginComponent</text>
</g>
<!-- LoginComponent&#45;&gt;SharedModule -->
<g id="edge5" class="edge">
<title>LoginComponent&#45;&gt;SharedModule</title>
<path fill="none" stroke="black" d="M775,-122.11C775,-122.11 775,-140.99 775,-140.99"/>
<polygon fill="black" stroke="black" points="771.5,-140.99 775,-150.99 778.5,-140.99 771.5,-140.99"/>
</g>
<!-- PageNotFoundComponent -->
<g id="node6" class="node">
<title>PageNotFoundComponent</title>
<polygon fill="#ffffb3" stroke="black" points="699.82,-122 534.18,-122 534.18,-86 699.82,-86 699.82,-122"/>
<text text-anchor="middle" x="617" y="-99.8" font-family="Times,serif" font-size="14.00">PageNotFoundComponent</text>
</g>
<!-- PageNotFoundComponent&#45;&gt;SharedModule -->
<g id="edge6" class="edge">
<title>PageNotFoundComponent&#45;&gt;SharedModule</title>
<path fill="none" stroke="black" d="M643.05,-122.12C643.05,-136.78 643.05,-155 643.05,-155 643.05,-155 715.49,-155 715.49,-155"/>
<polygon fill="black" stroke="black" points="715.49,-158.5 725.49,-155 715.49,-151.5 715.49,-158.5"/>
</g>
<!-- RegisterComponent -->
<g id="node7" class="node">
<title>RegisterComponent</title>
<polygon fill="#ffffb3" stroke="black" points="515.98,-122 388.02,-122 388.02,-86 515.98,-86 515.98,-122"/>
<text text-anchor="middle" x="452" y="-99.8" font-family="Times,serif" font-size="14.00">RegisterComponent</text>
</g>
<!-- RegisterComponent&#45;&gt;SharedModule -->
<g id="edge7" class="edge">
<title>RegisterComponent&#45;&gt;SharedModule</title>
<path fill="none" stroke="black" d="M469.83,-122.01C469.83,-138.05 469.83,-159 469.83,-159 469.83,-159 715.63,-159 715.63,-159"/>
<polygon fill="black" stroke="black" points="715.63,-162.5 725.63,-159 715.63,-155.5 715.63,-162.5"/>
</g>
<!-- SearchBarComponent -->
<g id="node8" class="node">
<title>SearchBarComponent</title>
<polygon fill="#ffffb3" stroke="black" points="369.63,-122 230.37,-122 230.37,-86 369.63,-86 369.63,-122"/>
<text text-anchor="middle" x="300" y="-99.8" font-family="Times,serif" font-size="14.00">SearchBarComponent</text>
</g>
<!-- SearchBarComponent&#45;&gt;SharedModule -->
<g id="edge8" class="edge">
<title>SearchBarComponent&#45;&gt;SharedModule</title>
<path fill="none" stroke="black" d="M365.69,-122.02C365.69,-139.37 365.69,-163 365.69,-163 365.69,-163 715.63,-163 715.63,-163"/>
<polygon fill="black" stroke="black" points="715.63,-166.5 725.63,-163 715.63,-159.5 715.63,-166.5"/>
</g>
<!-- SegmentControlComponent -->
<g id="node9" class="node">
<title>SegmentControlComponent</title>
<polygon fill="#ffffb3" stroke="black" points="212.6,-122 39.4,-122 39.4,-86 212.6,-86 212.6,-122"/>
<text text-anchor="middle" x="126" y="-99.8" font-family="Times,serif" font-size="14.00">SegmentControlComponent</text>
</g>
<!-- SegmentControlComponent&#45;&gt;SharedModule -->
<g id="edge9" class="edge">
<title>SegmentControlComponent&#45;&gt;SharedModule</title>
<path fill="none" stroke="black" d="M206.43,-122.22C206.43,-140.83 206.43,-167 206.43,-167 206.43,-167 715.54,-167 715.54,-167"/>
<polygon fill="black" stroke="black" points="715.54,-170.5 725.54,-167 715.54,-163.5 715.54,-170.5"/>
</g>
<!-- HeaderComponent  -->
<g id="node11" class="node">
<title>HeaderComponent </title>
<polygon fill="#fb8072" stroke="black" points="1508.74,-252 1383.26,-252 1383.26,-216 1508.74,-216 1508.74,-252"/>
<text text-anchor="middle" x="1446" y="-229.8" font-family="Times,serif" font-size="14.00">HeaderComponent </text>
</g>
<!-- SharedModule&#45;&gt;HeaderComponent  -->
<g id="edge10" class="edge">
<title>SharedModule&#45;&gt;HeaderComponent </title>
<path fill="none" stroke="black" stroke-dasharray="5,2" d="M824.26,-171C977.83,-171 1437.62,-171 1437.62,-171 1437.62,-171 1437.62,-205.78 1437.62,-205.78"/>
<polygon fill="black" stroke="black" points="1434.13,-205.78 1437.62,-215.78 1441.13,-205.78 1434.13,-205.78"/>
</g>
<!-- HeaderPageSectionComponent  -->
<g id="node12" class="node">
<title>HeaderPageSectionComponent </title>
<polygon fill="#fb8072" stroke="black" points="1365.45,-252 1170.55,-252 1170.55,-216 1365.45,-216 1365.45,-252"/>
<text text-anchor="middle" x="1268" y="-229.8" font-family="Times,serif" font-size="14.00">HeaderPageSectionComponent </text>
</g>
<!-- SharedModule&#45;&gt;HeaderPageSectionComponent  -->
<g id="edge11" class="edge">
<title>SharedModule&#45;&gt;HeaderPageSectionComponent </title>
<path fill="none" stroke="black" stroke-dasharray="5,2" d="M824.34,-175C948.05,-175 1261.62,-175 1261.62,-175 1261.62,-175 1261.62,-205.98 1261.62,-205.98"/>
<polygon fill="black" stroke="black" points="1258.13,-205.98 1261.62,-215.98 1265.13,-205.98 1258.13,-205.98"/>
</g>
<!-- InfoModalComponent  -->
<g id="node13" class="node">
<title>InfoModalComponent </title>
<polygon fill="#fb8072" stroke="black" points="1152.2,-252 1007.8,-252 1007.8,-216 1152.2,-216 1152.2,-252"/>
<text text-anchor="middle" x="1080" y="-229.8" font-family="Times,serif" font-size="14.00">InfoModalComponent </text>
</g>
<!-- SharedModule&#45;&gt;InfoModalComponent  -->
<g id="edge12" class="edge">
<title>SharedModule&#45;&gt;InfoModalComponent </title>
<path fill="none" stroke="black" stroke-dasharray="5,2" d="M824.37,-179C904.25,-179 1052.97,-179 1052.97,-179 1052.97,-179 1052.97,-205.99 1052.97,-205.99"/>
<polygon fill="black" stroke="black" points="1049.47,-205.99 1052.97,-215.99 1056.47,-205.99 1049.47,-205.99"/>
</g>
<!-- ItemCardComponent  -->
<g id="node14" class="node">
<title>ItemCardComponent </title>
<polygon fill="#fb8072" stroke="black" points="989.7,-252 852.3,-252 852.3,-216 989.7,-216 989.7,-252"/>
<text text-anchor="middle" x="921" y="-229.8" font-family="Times,serif" font-size="14.00">ItemCardComponent </text>
</g>
<!-- SharedModule&#45;&gt;ItemCardComponent  -->
<g id="edge13" class="edge">
<title>SharedModule&#45;&gt;ItemCardComponent </title>
<path fill="none" stroke="black" stroke-dasharray="5,2" d="M824.27,-183C857.81,-183 896.13,-183 896.13,-183 896.13,-183 896.13,-205.88 896.13,-205.88"/>
<polygon fill="black" stroke="black" points="892.63,-205.88 896.13,-215.88 899.63,-205.88 892.63,-205.88"/>
</g>
<!-- LoginComponent  -->
<g id="node15" class="node">
<title>LoginComponent </title>
<polygon fill="#fb8072" stroke="black" points="834.28,-252 715.72,-252 715.72,-216 834.28,-216 834.28,-252"/>
<text text-anchor="middle" x="775" y="-229.8" font-family="Times,serif" font-size="14.00">LoginComponent </text>
</g>
<!-- SharedModule&#45;&gt;LoginComponent  -->
<g id="edge14" class="edge">
<title>SharedModule&#45;&gt;LoginComponent </title>
<path fill="none" stroke="black" stroke-dasharray="5,2" d="M775,-187.11C775,-187.11 775,-205.99 775,-205.99"/>
<polygon fill="black" stroke="black" points="771.5,-205.99 775,-215.99 778.5,-205.99 771.5,-205.99"/>
</g>
<!-- PageNotFoundComponent  -->
<g id="node16" class="node">
<title>PageNotFoundComponent </title>
<polygon fill="#fb8072" stroke="black" points="697.32,-252 528.68,-252 528.68,-216 697.32,-216 697.32,-252"/>
<text text-anchor="middle" x="613" y="-229.8" font-family="Times,serif" font-size="14.00">PageNotFoundComponent </text>
</g>
<!-- SharedModule&#45;&gt;PageNotFoundComponent  -->
<g id="edge15" class="edge">
<title>SharedModule&#45;&gt;PageNotFoundComponent </title>
<path fill="none" stroke="black" stroke-dasharray="5,2" d="M725.56,-183C670.37,-183 588.7,-183 588.7,-183 588.7,-183 588.7,-205.88 588.7,-205.88"/>
<polygon fill="black" stroke="black" points="585.2,-205.88 588.7,-215.88 592.2,-205.88 585.2,-205.88"/>
</g>
<!-- RegisterComponent  -->
<g id="node17" class="node">
<title>RegisterComponent </title>
<polygon fill="#fb8072" stroke="black" points="510.99,-252 379.01,-252 379.01,-216 510.99,-216 510.99,-252"/>
<text text-anchor="middle" x="445" y="-229.8" font-family="Times,serif" font-size="14.00">RegisterComponent </text>
</g>
<!-- SharedModule&#45;&gt;RegisterComponent  -->
<g id="edge16" class="edge">
<title>SharedModule&#45;&gt;RegisterComponent </title>
<path fill="none" stroke="black" stroke-dasharray="5,2" d="M725.78,-179C630.24,-179 428.92,-179 428.92,-179 428.92,-179 428.92,-205.99 428.92,-205.99"/>
<polygon fill="black" stroke="black" points="425.42,-205.99 428.92,-215.99 432.42,-205.99 425.42,-205.99"/>
</g>
<!-- SearchBarComponent  -->
<g id="node18" class="node">
<title>SearchBarComponent </title>
<polygon fill="#fb8072" stroke="black" points="361.63,-252 218.37,-252 218.37,-216 361.63,-216 361.63,-252"/>
<text text-anchor="middle" x="290" y="-229.8" font-family="Times,serif" font-size="14.00">SearchBarComponent </text>
</g>
<!-- SharedModule&#45;&gt;SearchBarComponent  -->
<g id="edge17" class="edge">
<title>SharedModule&#45;&gt;SearchBarComponent </title>
<path fill="none" stroke="black" stroke-dasharray="5,2" d="M725.53,-175C603.11,-175 295.88,-175 295.88,-175 295.88,-175 295.88,-205.98 295.88,-205.98"/>
<polygon fill="black" stroke="black" points="292.38,-205.98 295.88,-215.98 299.38,-205.98 292.38,-205.98"/>
</g>
<!-- SegmentControlComponent  -->
<g id="node19" class="node">
<title>SegmentControlComponent </title>
<polygon fill="#fb8072" stroke="black" points="200.1,-252 23.9,-252 23.9,-216 200.1,-216 200.1,-252"/>
<text text-anchor="middle" x="112" y="-229.8" font-family="Times,serif" font-size="14.00">SegmentControlComponent </text>
</g>
<!-- SharedModule&#45;&gt;SegmentControlComponent  -->
<g id="edge18" class="edge">
<title>SharedModule&#45;&gt;SegmentControlComponent </title>
<path fill="none" stroke="black" stroke-dasharray="5,2" d="M725.76,-171C573.4,-171 119.88,-171 119.88,-171 119.88,-171 119.88,-205.78 119.88,-205.78"/>
<polygon fill="black" stroke="black" points="116.37,-205.78 119.88,-215.78 123.37,-205.78 116.37,-205.78"/>
</g>
</g>
</svg>
