<?xml version="1.0" encoding="UTF-8" standalone="no"?>
<!DOCTYPE svg PUBLIC "-//W3C//DTD SVG 1.1//EN"
 "http://www.w3.org/Graphics/SVG/1.1/DTD/svg11.dtd">
<!-- Generated by graphviz version 2.47.0 (20210316.0004)
 -->
<!-- Title: dependencies Pages: 1 -->
<svg width="534pt" height="211pt"
 viewBox="0.00 0.00 534.00 211.00" xmlns="http://www.w3.org/2000/svg" xmlns:xlink="http://www.w3.org/1999/xlink">
<g id="graph0" class="graph" transform="scale(1 1) rotate(0) translate(4 207)">
<title>dependencies</title>
<polygon fill="white" stroke="transparent" points="-4,4 -4,-207 530,-207 530,4 -4,4"/>
<text text-anchor="start" x="242.01" y="-42.4" font-family="Times-12" font-weight="bold" font-size="14.00">Legend</text>
<polygon fill="#ffffb3" stroke="transparent" points="29,-10 29,-30 49,-30 49,-10 29,-10"/>
<text text-anchor="start" x="52.63" y="-15.4" font-family="Times-12" font-size="14.00"> &#160;Declarations</text>
<polygon fill="#8dd3c7" stroke="transparent" points="142,-10 142,-30 162,-30 162,-10 142,-10"/>
<text text-anchor="start" x="165.73" y="-15.4" font-family="Times-12" font-size="14.00"> &#160;Module</text>
<polygon fill="#80b1d3" stroke="transparent" points="228,-10 228,-30 248,-30 248,-10 228,-10"/>
<text text-anchor="start" x="251.78" y="-15.4" font-family="Times-12" font-size="14.00"> &#160;Bootstrap</text>
<polygon fill="#fdb462" stroke="transparent" points="325,-10 325,-30 345,-30 345,-10 325,-10"/>
<text text-anchor="start" x="348.67" y="-15.4" font-family="Times-12" font-size="14.00"> &#160;Providers</text>
<polygon fill="#fb8072" stroke="transparent" points="421,-10 421,-30 441,-30 441,-10 421,-10"/>
<text text-anchor="start" x="444.73" y="-15.4" font-family="Times-12" font-size="14.00"> &#160;Exports</text>
<g id="clust1" class="cluster">
<title>cluster_ChatOverviewPageModule</title>
<polygon fill="none" stroke="black" stroke-dasharray="1,5" points="8,-70 8,-195 518,-195 518,-70 8,-70"/>
</g>
<g id="clust2" class="cluster">
<title>cluster_ChatOverviewPageModule_declarations</title>
<polygon fill="none" stroke="black" points="370,-78 370,-130 510,-130 510,-78 370,-78"/>
</g>
<g id="clust4" class="cluster">
<title>cluster_ChatOverviewPageModule_imports</title>
<polygon fill="none" stroke="black" points="16,-78 16,-130 362,-130 362,-78 16,-78"/>
</g>
<!-- ChatOverviewPage -->
<g id="node1" class="node">
<title>ChatOverviewPage</title>
<polygon fill="#ffffb3" stroke="black" points="502.35,-122 377.65,-122 377.65,-86 502.35,-86 502.35,-122"/>
<text text-anchor="middle" x="440" y="-99.8" font-family="Times,serif" font-size="14.00">ChatOverviewPage</text>
</g>
<!-- ChatOverviewPageModule -->
<g id="node2" class="node">
<title>ChatOverviewPageModule</title>
<polygon fill="#8dd3c7" stroke="black" points="331.4,-187 328.4,-191 307.4,-191 304.4,-187 162.6,-187 162.6,-151 331.4,-151 331.4,-187"/>
<text text-anchor="middle" x="247" y="-164.8" font-family="Times,serif" font-size="14.00">ChatOverviewPageModule</text>
</g>
<!-- ChatOverviewPage&#45;&gt;ChatOverviewPageModule -->
<g id="edge1" class="edge">
<title>ChatOverviewPage&#45;&gt;ChatOverviewPageModule</title>
<path fill="none" stroke="black" d="M440,-122.11C440,-141.34 440,-169 440,-169 440,-169 341.37,-169 341.37,-169"/>
<polygon fill="black" stroke="black" points="341.37,-165.5 331.37,-169 341.37,-172.5 341.37,-165.5"/>
</g>
<!-- ChatOverviewPageRoutingModule -->
<g id="node3" class="node">
<title>ChatOverviewPageRoutingModule</title>
<polygon fill="#8dd3c7" stroke="black" points="353.52,-122 350.52,-126 329.52,-126 326.52,-122 140.48,-122 140.48,-86 353.52,-86 353.52,-122"/>
<text text-anchor="middle" x="247" y="-99.8" font-family="Times,serif" font-size="14.00">ChatOverviewPageRoutingModule</text>
</g>
<!-- ChatOverviewPageRoutingModule&#45;&gt;ChatOverviewPageModule -->
<g id="edge2" class="edge">
<title>ChatOverviewPageRoutingModule&#45;&gt;ChatOverviewPageModule</title>
<path fill="none" stroke="black" d="M247,-122.11C247,-122.11 247,-140.99 247,-140.99"/>
<polygon fill="black" stroke="black" points="243.5,-140.99 247,-150.99 250.5,-140.99 243.5,-140.99"/>
</g>
<!-- SharedModule -->
<g id="node4" class="node">
<title>SharedModule</title>
<polygon fill="#8dd3c7" stroke="black" points="122.42,-122 119.42,-126 98.42,-126 95.42,-122 23.58,-122 23.58,-86 122.42,-86 122.42,-122"/>
<text text-anchor="middle" x="73" y="-99.8" font-family="Times,serif" font-size="14.00">SharedModule</text>
</g>
<!-- SharedModule&#45;&gt;ChatOverviewPageModule -->
<g id="edge3" class="edge">
<title>SharedModule&#45;&gt;ChatOverviewPageModule</title>
<path fill="none" stroke="black" d="M73,-122.11C73,-141.34 73,-169 73,-169 73,-169 152.55,-169 152.55,-169"/>
<polygon fill="black" stroke="black" points="152.55,-172.5 162.55,-169 152.55,-165.5 152.55,-172.5"/>
</g>
</g>
</svg>
